<svg version="1.1" id="Layer_1" xmlns="http://www.w3.org/2000/svg" xmlns:xlink="http://www.w3.org/1999/xlink" x="0px" y="0px"
	 width="100%" viewBox="0 0 800 800" enable-background="new 0 0 800 800" xml:space="preserve">
<path fill="#1D1D1D" opacity="1.000000" stroke="none" 
	d="
M485.000000,801.000000 
	C323.333344,801.000000 162.166672,801.000000 1.000000,801.000000 
	C1.000000,534.333313 1.000000,267.666656 1.000000,1.000000 
	C267.666656,1.000000 534.333313,1.000000 801.000000,1.000000 
	C801.000000,267.666656 801.000000,534.333313 801.000000,801.000000 
	C695.833313,801.000000 590.666687,801.000000 485.000000,801.000000 
M174.381714,541.703125 
	C174.586777,541.148071 174.791840,540.593018 175.919907,539.860168 
	C187.644623,539.843994 199.369370,539.835754 211.094070,539.808838 
	C219.044235,539.790588 222.440323,537.415466 225.918182,529.772095 
	C226.275360,528.904053 227.032867,527.982300 226.924942,527.176575 
	C226.208954,521.831177 228.815659,519.362366 233.261826,519.173828 
	C235.132996,512.884705 240.426605,506.251404 230.355927,502.576996 
	C229.764908,502.828308 228.773727,503.249756 227.688889,503.711029 
	C227.446396,498.947937 227.168793,494.542328 227.012802,490.132416 
	C226.861221,485.847351 229.122864,484.275482 233.199921,484.873047 
	C237.023376,485.433472 240.593643,485.177826 242.413940,481.058228 
	C243.433319,478.751221 244.407913,476.364929 244.931488,473.913757 
	C245.546509,471.034515 245.511932,468.022217 246.015320,465.111938 
	C246.509354,462.255768 247.625320,459.486206 247.920456,456.622192 
	C248.260284,453.324341 247.975510,449.964417 248.004654,446.631805 
	C248.059937,440.310425 251.650574,437.882690 256.996887,441.134369 
	C264.840118,445.904755 271.600128,441.163391 278.705872,439.345764 
	C279.302002,439.193268 279.519196,437.688019 279.977661,436.846741 
	C282.088837,432.972778 284.149139,429.067047 286.416718,425.286102 
	C286.829010,424.598633 288.098816,424.166626 289.013947,424.086456 
	C292.198730,423.807343 295.189117,423.713745 297.256531,427.183868 
	C298.713715,429.629730 304.901489,429.841156 306.014252,427.421265 
	C306.775574,425.765686 305.731110,423.030365 304.958954,420.979156 
	C303.881958,418.118164 302.512726,415.311890 300.861420,412.743988 
	C299.937408,411.307098 298.214905,409.452911 296.811310,409.417755 
	C291.022644,409.272858 285.214233,410.008820 279.421234,409.915161 
	C275.265350,409.848022 274.296783,411.434631 273.809875,415.429108 
	C273.114288,421.135284 271.216034,426.715057 269.535950,432.259277 
	C269.285736,433.085022 267.434143,433.878601 266.302856,433.908417 
	C260.308228,434.066620 254.289810,434.261017 248.312424,433.899994 
	C240.752197,433.443390 239.957138,432.373291 240.024353,424.824951 
	C240.044937,422.513733 240.587631,420.193146 240.465744,417.899506 
	C240.382004,416.323914 239.564056,414.787292 239.074280,413.233307 
	C237.083710,413.893341 234.917603,414.259766 233.160431,415.310272 
	C231.854645,416.090912 231.079178,417.758606 229.259735,420.047333 
	C228.605453,417.418396 228.073227,416.216217 228.039215,415.000122 
	C227.648804,401.043884 227.266693,387.086365 227.106705,373.126617 
	C227.091248,371.777527 228.577759,370.411224 229.367050,369.052917 
	C230.521027,369.778473 232.586212,370.431702 232.650681,371.243774 
	C232.815521,373.320435 232.089462,375.467804 231.719727,377.586914 
	C228.618225,376.854156 228.726547,379.062561 229.184250,380.799438 
	C229.420486,381.695862 231.003372,382.956940 231.797943,382.839264 
	C233.534439,382.582062 236.320190,381.867859 236.618927,380.776764 
	C237.787109,376.510193 241.203415,372.944000 239.431931,367.593109 
	C238.298401,364.169250 239.477798,359.841309 240.175934,356.020203 
	C240.440338,354.573120 242.020218,352.799774 243.425308,352.238281 
	C247.038559,350.794495 250.938019,350.081268 254.612640,348.767151 
	C255.583115,348.420074 256.708832,347.010223 256.814667,345.989960 
	C257.416138,340.191040 255.251678,338.015930 249.270432,338.001495 
	C247.937302,337.998291 246.603775,337.976776 245.271103,338.000793 
	C241.789719,338.063507 239.976852,336.432129 240.002426,332.886444 
	C240.013245,331.386719 240.004501,329.886902 239.998718,328.387115 
	C239.974030,321.992126 239.754578,321.785095 233.484863,322.411652 
	C230.487839,317.081268 231.372238,311.453339 232.592331,305.893524 
	C233.294113,302.695648 232.478928,301.355438 229.098221,300.935303 
	C221.972717,300.049805 219.341980,294.876953 222.312561,288.342102 
	C225.696289,280.898438 225.226990,273.350494 222.397705,265.920593 
	C220.906204,262.003876 222.346558,252.106293 225.349518,249.309952 
	C226.027817,248.678345 227.108307,248.061478 227.966522,248.108978 
	C233.000687,248.387543 238.291321,246.625290 242.975174,250.177765 
	C243.864395,250.852203 245.852875,250.652344 247.085876,250.191559 
	C250.914322,248.760818 254.531891,246.715317 258.418121,245.511551 
	C260.288300,244.932266 262.599274,245.570435 264.672729,245.897507 
	C268.504944,246.501999 272.290283,247.565826 276.136383,247.824371 
	C277.340088,247.905289 279.603790,246.154465 279.778076,244.999939 
	C280.302216,241.528214 281.932343,240.106491 285.316864,239.815811 
	C286.252258,239.735489 287.205658,238.308334 287.900360,237.322632 
	C289.153564,235.544403 290.269928,233.662445 291.340851,231.765869 
	C291.950104,230.686890 292.781555,229.465698 292.710327,228.360245 
	C292.659210,227.567001 291.264374,226.204376 290.493927,226.221466 
	C285.994781,226.321289 282.926331,224.263245 279.165131,221.804901 
	C274.738434,218.911575 268.318207,218.775391 262.683746,218.127136 
	C259.002014,217.703537 256.063324,217.471390 255.862457,212.834473 
	C255.823486,211.934692 254.830780,210.734268 253.959503,210.269135 
	C249.057755,207.652374 244.005722,205.316071 239.115555,202.679031 
	C236.755829,201.406540 234.534378,199.814484 232.438644,198.132462 
	C230.100052,196.255508 225.475784,196.632980 225.358109,199.122757 
	C225.156342,203.390915 223.324753,204.788574 219.337830,205.381561 
	C218.028961,205.576263 216.935562,208.474915 216.173080,210.315018 
	C215.947235,210.860046 217.012192,212.540039 217.785660,212.797043 
	C221.479889,214.024521 225.223633,215.320465 229.053055,215.862671 
	C232.926392,216.411102 234.152756,218.375931 234.016754,221.906937 
	C233.927017,224.236526 234.551437,226.762573 233.834671,228.849899 
	C233.164307,230.802170 231.197006,232.337112 229.707794,233.971207 
	C228.544495,235.247696 227.115356,236.294342 226.033310,237.628769 
	C225.043060,238.849976 224.377960,240.331421 223.536011,241.677200 
	C222.711258,242.995514 221.362305,244.193008 221.085281,245.608307 
	C220.227844,249.988632 217.363770,251.937057 213.428680,253.049698 
	C212.251190,253.382629 210.628784,253.965698 210.222168,254.882812 
	C208.545792,258.664062 205.543854,259.275330 201.985062,259.000031 
	C199.149963,258.780670 197.392715,259.499023 196.746613,262.812592 
	C196.130417,265.972809 195.331726,269.892303 193.146713,271.785248 
	C188.683334,275.651978 187.522171,278.233032 193.034317,282.007385 
	C194.025208,282.685883 194.031815,286.456360 193.086548,287.834930 
	C192.171661,289.169189 189.304901,289.993286 187.555481,289.663208 
	C186.173447,289.402466 184.339691,287.150543 184.159760,285.612885 
	C182.957031,275.334167 182.532928,264.927368 177.480331,255.504410 
	C177.281723,255.133972 177.420120,254.537903 177.506760,254.066315 
	C178.542572,248.428116 175.602371,245.925568 170.307251,245.343262 
	C171.230240,244.207977 171.972916,243.294479 173.400513,241.538513 
	C158.927338,245.952881 158.927338,245.952881 158.175369,241.419968 
	C156.471802,241.648239 154.776962,241.875351 152.004883,242.246796 
	C152.004883,250.582809 152.004898,258.702423 152.004868,266.822021 
	C152.004837,277.820435 151.820557,288.823486 152.097214,299.814941 
	C152.204773,304.088531 150.712952,305.189301 146.657379,305.087433 
	C136.665146,304.836456 126.661263,304.932892 116.664925,305.081787 
	C115.099701,305.105103 113.549469,306.134888 111.350914,307.029510 
	C105.923637,309.064056 103.130051,312.829895 103.133385,318.775330 
	C103.172363,388.216583 103.149223,457.657867 103.182663,527.099121 
	C103.186485,535.027405 107.876732,539.687378 116.031601,539.785095 
	C127.020729,539.916809 138.012650,539.808777 149.003326,539.826172 
	C150.449799,539.828430 151.896072,539.963562 153.407272,540.040405 
	C153.492111,541.248596 153.600800,542.067383 153.599609,542.886047 
	C153.570099,563.201477 153.538452,583.516846 153.485199,603.832275 
	C153.464188,611.848999 156.975311,615.454834 164.512207,615.075134 
	C170.821075,614.757324 173.611023,611.229797 173.624481,603.935364 
	C173.662598,583.299072 173.781433,562.663025 174.381714,541.703125 
M484.177338,269.215637 
	C484.400085,269.061279 484.622864,268.906921 484.845642,268.752563 
	C484.432373,268.943787 484.019135,269.135010 483.226807,269.304230 
	C482.975800,269.192993 482.819458,269.003571 482.795166,267.904205 
	C480.062012,266.935272 477.331940,265.131744 474.595215,265.121582 
	C427.897125,264.948029 381.198151,265.018127 334.499664,264.916840 
	C332.634247,264.912781 330.788300,263.688110 328.902832,263.136139 
	C326.752075,262.506531 324.246460,261.052612 322.474396,261.656616 
	C319.990753,262.503174 318.356110,265.029175 319.691528,268.693573 
	C314.641479,271.793671 312.928101,276.327179 312.934082,282.188141 
	C313.018097,364.960876 313.050629,447.733917 312.840057,530.506226 
	C312.818329,539.045898 315.878326,544.524048 324.223083,548.025330 
	C325.833130,547.944458 327.443146,547.863647 329.944153,547.491699 
	C334.080872,547.466736 338.217896,547.398193 342.354279,547.424622 
	C358.556061,547.528076 374.757690,547.661560 391.160278,548.133118 
	C391.451294,548.028564 391.742279,547.923950 392.851624,548.198425 
	C392.918945,574.321960 393.013123,600.445496 393.046265,626.569092 
	C393.081329,654.196228 393.028534,681.823547 393.082245,709.450623 
	C393.094971,715.998718 397.757507,719.745605 403.407501,717.822327 
	C407.962769,716.271729 408.797455,712.603027 408.788391,708.232117 
	C408.712250,671.617920 408.709412,635.003540 408.759735,598.389282 
	C408.782379,581.921265 408.976379,565.453552 409.509979,548.685730 
	C409.685272,548.393311 409.860565,548.100891 410.925110,547.500000 
	C415.888214,547.471619 420.851562,547.395569 425.814331,547.423767 
	C441.187073,547.510986 456.559540,547.637939 472.434723,548.377502 
	C474.333069,548.016968 476.231384,547.656494 478.653229,546.978638 
	C486.704620,543.718689 489.156708,540.134277 489.156342,531.429443 
	C489.152740,448.491089 489.106842,365.552673 489.198730,282.614441 
	C489.204742,277.194458 487.517639,272.903870 484.177338,269.215637 
M583.675964,249.914642 
	C579.884766,252.811066 578.898071,256.704041 578.901550,261.349701 
	C578.954712,332.818298 578.901001,404.286987 578.867065,475.755646 
	C578.863159,483.948547 583.429016,488.696106 591.885254,488.800171 
	C603.878357,488.947845 615.874329,488.851501 627.869080,488.880035 
	C629.308350,488.883484 630.747314,489.015442 632.325134,489.094788 
	C632.325134,508.173584 632.309631,526.821045 632.333679,545.468567 
	C632.341980,551.929260 635.697632,555.216858 642.212646,555.286865 
	C648.855896,555.358215 652.163574,552.230774 652.188904,545.662170 
	C652.242981,531.668518 652.227661,517.674561 652.238464,503.680695 
	C652.242126,498.888123 652.239014,494.095551 652.239014,488.828552 
	C654.378357,488.828552 655.997742,488.829987 657.617065,488.828308 
	C668.112488,488.817322 678.608948,488.893219 689.102966,488.765839 
	C697.189026,488.667694 701.853699,483.923889 701.855286,475.978851 
	C701.869629,404.176880 701.867432,332.374878 701.856750,260.572906 
	C701.855591,252.379532 697.532776,247.904907 689.290649,247.797089 
	C678.797058,247.659821 668.300842,247.721237 657.805786,247.698410 
	C656.047791,247.694580 654.289734,247.697861 652.254028,247.697861 
	C652.254028,231.262161 652.276550,215.621552 652.243469,199.981064 
	C652.229370,193.311310 649.017151,190.114883 642.520325,190.132889 
	C636.110840,190.150650 632.512512,193.519775 632.460999,199.853470 
	C632.372925,210.681290 632.427429,221.510254 632.423523,232.338745 
	C632.421692,237.293320 632.423157,242.247894 632.423157,247.708923 
	C630.071472,247.708923 628.277405,247.709641 626.483398,247.708817 
	C615.322021,247.703659 604.158691,247.580597 593.000732,247.772781 
	C590.094727,247.822830 587.205566,248.855743 583.675964,249.914642 
M438.816559,153.733292 
	C427.325134,138.861511 412.093750,132.875778 393.618896,135.028000 
	C370.948944,137.668915 352.127167,156.922546 353.370758,182.273041 
	C354.343597,202.105347 368.226471,218.253372 387.527954,223.817047 
	C406.371063,229.248581 427.381439,222.115189 439.093658,206.265335 
	C449.388214,192.333969 450.819763,170.497604 438.816559,153.733292 
M288.957153,184.657486 
	C302.097290,184.674377 315.237457,184.722549 328.377502,184.692581 
	C333.555725,184.680786 336.602386,182.080704 336.504395,177.984818 
	C336.403473,173.765289 333.483490,171.168503 328.400360,171.133774 
	C315.094116,171.042877 301.786804,171.007111 288.480560,171.074112 
	C283.416382,171.099594 280.187958,173.819397 280.053375,177.736511 
	C279.914673,181.773849 282.436462,183.941406 288.957153,184.657486 
M507.351532,171.046188 
	C495.551086,171.061295 483.749786,170.999146 471.950623,171.129242 
	C467.176880,171.181870 464.257721,173.872131 464.128082,177.783707 
	C464.005280,181.488007 466.870880,184.628021 471.131134,184.665604 
	C485.256927,184.790207 499.392700,184.908112 513.503357,184.416672 
	C515.651001,184.341858 518.871582,181.318329 519.416016,179.119049 
	C519.894409,177.186447 517.860901,173.739517 515.934937,172.357758 
	C514.047302,171.003540 510.895660,171.411209 507.351532,171.046188 
M324.446869,96.778511 
	C319.739655,94.013130 316.167938,94.165718 313.855957,97.461983 
	C311.014038,101.513885 313.090302,104.603340 316.053284,107.500587 
	C324.975891,116.225197 333.831482,125.018456 342.776062,133.720322 
	C346.805695,137.640625 351.076233,137.982437 354.197510,134.853729 
	C357.238678,131.805328 356.803314,128.257965 352.555328,124.077759 
	C343.424011,115.092148 334.195557,106.205261 324.446869,96.778511 
M443.985321,132.073166 
	C447.197968,137.778168 451.262268,138.813980 455.991608,134.440735 
	C465.766174,125.402107 475.287079,116.087006 484.825592,106.796593 
	C487.462891,104.227875 488.647949,100.632584 485.999115,97.889969 
	C484.258118,96.087311 480.895172,95.496666 478.161499,95.166435 
	C476.916016,95.015968 475.253448,96.619446 474.091125,97.747810 
	C464.890167,106.679985 455.670410,115.597626 446.704834,124.762787 
	C445.156433,126.345657 444.784424,129.079330 443.985321,132.073166 
M393.882141,80.610130 
	C393.867615,91.083427 393.771484,101.557556 393.877075,112.029640 
	C393.921814,116.465309 396.926453,119.424080 400.926392,119.492691 
	C404.708588,119.557571 408.326111,116.336304 408.374268,112.315895 
	C408.517517,100.348572 408.496246,88.378372 408.428009,76.409935 
	C408.406769,72.680733 406.388489,69.461380 402.829468,69.236252 
	C400.162567,69.067551 396.727478,70.593719 394.814087,72.530609 
	C393.474365,73.886826 394.124054,77.208305 393.882141,80.610130 
z"/>
<path fill="#FDFDFD" opacity="1.000000" stroke="none" 
	d="
M390.959351,547.783936 
	C374.757690,547.661560 358.556061,547.528076 342.354279,547.424622 
	C338.217896,547.398193 334.080872,547.466736 329.079224,547.511963 
	C326.759155,547.459595 325.304047,547.386902 323.848907,547.314209 
	C315.878326,544.524048 312.818329,539.045898 312.840057,530.506226 
	C313.050629,447.733917 313.018097,364.960876 312.934082,282.188141 
	C312.928101,276.327179 314.641479,271.793671 320.283966,268.344360 
	C324.139160,267.496429 327.401062,266.569977 330.664825,266.563263 
	C377.991699,266.466248 425.318909,266.446747 472.645569,266.586029 
	C476.018402,266.595947 479.387146,267.987091 482.757812,268.735992 
	C482.819458,269.003571 482.975800,269.192993 483.434509,269.303528 
	C483.642242,269.302856 483.624817,269.327423 483.624817,269.327423 
	C487.517639,272.903870 489.204742,277.194458 489.198730,282.614441 
	C489.106842,365.552673 489.152740,448.491089 489.156342,531.429443 
	C489.156708,540.134277 486.704620,543.718689 477.945160,547.112793 
	C475.468781,547.414429 473.700439,547.581970 471.932129,547.749451 
	C456.559540,547.637939 441.187073,547.510986 425.814331,547.423767 
	C420.851562,547.395569 415.888214,547.471619 410.147766,547.633423 
	C409.277863,548.173157 409.185242,548.579407 409.092621,548.985657 
	C408.976379,565.453552 408.782379,581.921265 408.759735,598.389282 
	C408.709412,635.003540 408.712250,671.617920 408.788391,708.232117 
	C408.797455,712.603027 407.962769,716.271729 403.407501,717.822327 
	C397.757507,719.745605 393.094971,715.998718 393.082245,709.450623 
	C393.028534,681.823547 393.081329,654.196228 393.046265,626.569092 
	C393.013123,600.445496 392.918945,574.321960 392.177979,547.878540 
	C391.322723,547.633728 391.141052,547.708801 390.959351,547.783936 
z"/>
<path fill="#FDFDFD" opacity="1.000000" stroke="none" 
	d="
M583.992310,249.675934 
	C587.205566,248.855743 590.094727,247.822830 593.000732,247.772781 
	C604.158691,247.580597 615.322021,247.703659 626.483398,247.708817 
	C628.277405,247.709641 630.071472,247.708923 632.423157,247.708923 
	C632.423157,242.247894 632.421692,237.293320 632.423523,232.338745 
	C632.427429,221.510254 632.372925,210.681290 632.460999,199.853470 
	C632.512512,193.519775 636.110840,190.150650 642.520325,190.132889 
	C649.017151,190.114883 652.229370,193.311310 652.243469,199.981064 
	C652.276550,215.621552 652.254028,231.262161 652.254028,247.697861 
	C654.289734,247.697861 656.047791,247.694580 657.805786,247.698410 
	C668.300842,247.721237 678.797058,247.659821 689.290649,247.797089 
	C697.532776,247.904907 701.855591,252.379532 701.856750,260.572906 
	C701.867432,332.374878 701.869629,404.176880 701.855286,475.978851 
	C701.853699,483.923889 697.189026,488.667694 689.102966,488.765839 
	C678.608948,488.893219 668.112488,488.817322 657.617065,488.828308 
	C655.997742,488.829987 654.378357,488.828552 652.239014,488.828552 
	C652.239014,494.095551 652.242126,498.888123 652.238464,503.680695 
	C652.227661,517.674561 652.242981,531.668518 652.188904,545.662170 
	C652.163574,552.230774 648.855896,555.358215 642.212646,555.286865 
	C635.697632,555.216858 632.341980,551.929260 632.333679,545.468567 
	C632.309631,526.821045 632.325134,508.173584 632.325134,489.094788 
	C630.747314,489.015442 629.308350,488.883484 627.869080,488.880035 
	C615.874329,488.851501 603.878357,488.947845 591.885254,488.800171 
	C583.429016,488.696106 578.863159,483.948547 578.867065,475.755646 
	C578.901001,404.286987 578.954712,332.818298 578.901550,261.349701 
	C578.898071,256.704041 579.884766,252.811066 583.992310,249.675934 
z"/>
<path fill="#FCFCFC" opacity="1.000000" stroke="none" 
	d="
M225.187347,530.003906 
	C222.440323,537.415466 219.044235,539.790588 211.094070,539.808838 
	C199.369370,539.835754 187.644623,539.843994 175.074570,539.926392 
	C174.108978,540.670715 173.988724,541.348755 173.868469,542.026855 
	C173.781433,562.663025 173.662598,583.299072 173.624481,603.935364 
	C173.611023,611.229797 170.821075,614.757324 164.512207,615.075134 
	C156.975311,615.454834 153.464188,611.848999 153.485199,603.832275 
	C153.538452,583.516846 153.570099,563.201477 153.599609,542.886047 
	C153.600800,542.067383 153.492111,541.248596 153.407272,540.040405 
	C151.896072,539.963562 150.449799,539.828430 149.003326,539.826172 
	C138.012650,539.808777 127.020729,539.916809 116.031601,539.785095 
	C107.876732,539.687378 103.186485,535.027405 103.182663,527.099121 
	C103.149223,457.657867 103.172363,388.216583 103.133385,318.775330 
	C103.130051,312.829895 105.923637,309.064056 112.141129,306.878052 
	C126.323334,306.726593 139.715332,306.726593 153.631699,306.726593 
	C153.631699,289.997040 153.624435,274.081055 153.634918,258.165070 
	C153.639832,250.709015 156.724518,247.207916 163.294586,247.142166 
	C170.300812,247.072052 173.533859,250.522827 173.590469,258.123596 
	C173.667114,268.414490 173.747421,278.705353 173.703812,289.427765 
	C173.664185,292.240723 173.746902,294.622192 173.718262,297.370239 
	C173.688583,298.490082 173.770264,299.243286 173.739792,300.402100 
	C173.695328,302.201904 173.763016,303.596069 173.798386,305.365662 
	C174.185425,305.907166 174.604797,306.073303 175.391129,306.341919 
	C176.506653,306.363800 177.255234,306.283234 178.456543,306.333801 
	C189.327133,306.491608 199.752472,306.768280 210.160233,306.457153 
	C217.103531,306.249603 221.927048,308.809723 224.813782,315.439819 
	C224.940781,316.539886 225.084549,317.268188 225.130646,318.456207 
	C225.030228,346.363892 225.006638,373.811890 225.029663,401.259796 
	C225.065643,444.174500 225.133179,487.089203 225.187347,530.003906 
z"/>
<path fill="#212121" opacity="1.000000" stroke="none" 
	d="
M225.552765,529.888000 
	C225.133179,487.089203 225.065643,444.174500 225.029663,401.259796 
	C225.006638,373.811890 225.030228,346.363892 225.532440,318.455444 
	C227.328262,317.346466 228.732681,316.833435 229.840500,315.948914 
	C230.098541,315.742859 229.348175,314.273895 229.061798,313.386047 
	C227.651382,313.946716 226.240967,314.507385 224.830566,315.068054 
	C221.927048,308.809723 217.103531,306.249603 210.160233,306.457153 
	C199.752472,306.768280 189.327133,306.491608 178.456726,305.923431 
	C177.891937,302.606171 177.708099,299.885620 173.851944,299.996490 
	C173.770264,299.243286 173.688583,298.490082 174.123047,297.363251 
	C175.755173,295.524323 177.835739,293.970795 177.712067,292.618896 
	C177.591751,291.303864 175.213150,290.195404 173.826157,288.996246 
	C173.747421,278.705353 173.667114,268.414490 173.590469,258.123596 
	C173.533859,250.522827 170.300812,247.072052 163.294586,247.142166 
	C156.724518,247.207916 153.639832,250.709015 153.634918,258.165070 
	C153.624435,274.081055 153.631699,289.997040 153.631699,306.726593 
	C139.715332,306.726593 126.323334,306.726593 112.461823,306.712952 
	C113.549469,306.134888 115.099701,305.105103 116.664925,305.081787 
	C126.661263,304.932892 136.665146,304.836456 146.657379,305.087433 
	C150.712952,305.189301 152.204773,304.088531 152.097214,299.814941 
	C151.820557,288.823486 152.004837,277.820435 152.004868,266.822021 
	C152.004898,258.702423 152.004883,250.582809 152.004883,242.246796 
	C154.776962,241.875351 156.471802,241.648239 158.175369,241.419968 
	C158.927338,245.952881 158.927338,245.952881 173.400513,241.538513 
	C171.972916,243.294479 171.230240,244.207977 170.307251,245.343262 
	C175.602371,245.925568 178.542572,248.428116 177.506760,254.066315 
	C177.420120,254.537903 177.281723,255.133972 177.480331,255.504410 
	C182.532928,264.927368 182.957031,275.334167 184.159760,285.612885 
	C184.339691,287.150543 186.173447,289.402466 187.555481,289.663208 
	C189.304901,289.993286 192.171661,289.169189 193.086548,287.834930 
	C194.031815,286.456360 194.025208,282.685883 193.034317,282.007385 
	C187.522171,278.233032 188.683334,275.651978 193.146713,271.785248 
	C195.331726,269.892303 196.130417,265.972809 196.746613,262.812592 
	C197.392715,259.499023 199.149963,258.780670 201.985062,259.000031 
	C205.543854,259.275330 208.545792,258.664062 210.222168,254.882812 
	C210.628784,253.965698 212.251190,253.382629 213.428680,253.049698 
	C217.363770,251.937057 220.227844,249.988632 221.085281,245.608307 
	C221.362305,244.193008 222.711258,242.995514 223.536011,241.677200 
	C224.377960,240.331421 225.043060,238.849976 226.033310,237.628769 
	C227.115356,236.294342 228.544495,235.247696 229.707794,233.971207 
	C231.197006,232.337112 233.164307,230.802170 233.834671,228.849899 
	C234.551437,226.762573 233.927017,224.236526 234.016754,221.906937 
	C234.152756,218.375931 232.926392,216.411102 229.053055,215.862671 
	C225.223633,215.320465 221.479889,214.024521 217.785660,212.797043 
	C217.012192,212.540039 215.947235,210.860046 216.173080,210.315018 
	C216.935562,208.474915 218.028961,205.576263 219.337830,205.381561 
	C223.324753,204.788574 225.156342,203.390915 225.358109,199.122757 
	C225.475784,196.632980 230.100052,196.255508 232.438644,198.132462 
	C234.534378,199.814484 236.755829,201.406540 239.115555,202.679031 
	C244.005722,205.316071 249.057755,207.652374 253.959503,210.269135 
	C254.830780,210.734268 255.823486,211.934692 255.862457,212.834473 
	C256.063324,217.471390 259.002014,217.703537 262.683746,218.127136 
	C268.318207,218.775391 274.738434,218.911575 279.165131,221.804901 
	C282.926331,224.263245 285.994781,226.321289 290.493927,226.221466 
	C291.264374,226.204376 292.659210,227.567001 292.710327,228.360245 
	C292.781555,229.465698 291.950104,230.686890 291.340851,231.765869 
	C290.269928,233.662445 289.153564,235.544403 287.900360,237.322632 
	C287.205658,238.308334 286.252258,239.735489 285.316864,239.815811 
	C281.932343,240.106491 280.302216,241.528214 279.778076,244.999939 
	C279.603790,246.154465 277.340088,247.905289 276.136383,247.824371 
	C272.290283,247.565826 268.504944,246.501999 264.672729,245.897507 
	C262.599274,245.570435 260.288300,244.932266 258.418121,245.511551 
	C254.531891,246.715317 250.914322,248.760818 247.085876,250.191559 
	C245.852875,250.652344 243.864395,250.852203 242.975174,250.177765 
	C238.291321,246.625290 233.000687,248.387543 227.966522,248.108978 
	C227.108307,248.061478 226.027817,248.678345 225.349518,249.309952 
	C222.346558,252.106293 220.906204,262.003876 222.397705,265.920593 
	C225.226990,273.350494 225.696289,280.898438 222.312561,288.342102 
	C219.341980,294.876953 221.972717,300.049805 229.098221,300.935303 
	C232.478928,301.355438 233.294113,302.695648 232.592331,305.893524 
	C231.372238,311.453339 230.487839,317.081268 233.484863,322.411652 
	C239.754578,321.785095 239.974030,321.992126 239.998718,328.387115 
	C240.004501,329.886902 240.013245,331.386719 240.002426,332.886444 
	C239.976852,336.432129 241.789719,338.063507 245.271103,338.000793 
	C246.603775,337.976776 247.937302,337.998291 249.270432,338.001495 
	C255.251678,338.015930 257.416138,340.191040 256.814667,345.989960 
	C256.708832,347.010223 255.583115,348.420074 254.612640,348.767151 
	C250.938019,350.081268 247.038559,350.794495 243.425308,352.238281 
	C242.020218,352.799774 240.440338,354.573120 240.175934,356.020203 
	C239.477798,359.841309 238.298401,364.169250 239.431931,367.593109 
	C241.203415,372.944000 237.787109,376.510193 236.618927,380.776764 
	C236.320190,381.867859 233.534439,382.582062 231.797943,382.839264 
	C231.003372,382.956940 229.420486,381.695862 229.184250,380.799438 
	C228.726547,379.062561 228.618225,376.854156 231.719727,377.586914 
	C232.089462,375.467804 232.815521,373.320435 232.650681,371.243774 
	C232.586212,370.431702 230.521027,369.778473 229.367035,369.052917 
	C228.577759,370.411224 227.091248,371.777527 227.106705,373.126617 
	C227.266693,387.086365 227.648804,401.043884 228.039215,415.000122 
	C228.073227,416.216217 228.605453,417.418396 229.259735,420.047333 
	C231.079178,417.758606 231.854645,416.090912 233.160431,415.310272 
	C234.917603,414.259766 237.083710,413.893341 239.074280,413.233276 
	C239.564056,414.787292 240.382004,416.323914 240.465744,417.899506 
	C240.587631,420.193146 240.044937,422.513733 240.024353,424.824951 
	C239.957138,432.373291 240.752197,433.443390 248.312424,433.899994 
	C254.289810,434.261017 260.308228,434.066620 266.302856,433.908417 
	C267.434143,433.878601 269.285736,433.085022 269.535950,432.259277 
	C271.216034,426.715057 273.114288,421.135284 273.809875,415.429108 
	C274.296783,411.434631 275.265350,409.848022 279.421234,409.915161 
	C285.214233,410.008820 291.022644,409.272858 296.811310,409.417755 
	C298.214905,409.452911 299.937408,411.307098 300.861420,412.743988 
	C302.512726,415.311890 303.881958,418.118164 304.958954,420.979156 
	C305.731110,423.030365 306.775574,425.765686 306.014252,427.421265 
	C304.901489,429.841156 298.713715,429.629730 297.256531,427.183868 
	C295.189117,423.713745 292.198730,423.807343 289.013947,424.086456 
	C288.098816,424.166626 286.829010,424.598633 286.416718,425.286102 
	C284.149139,429.067047 282.088837,432.972778 279.977661,436.846741 
	C279.519196,437.688019 279.302002,439.193268 278.705872,439.345764 
	C271.600128,441.163391 264.840118,445.904755 256.996887,441.134369 
	C251.650574,437.882690 248.059937,440.310425 248.004654,446.631805 
	C247.975510,449.964417 248.260284,453.324341 247.920456,456.622192 
	C247.625320,459.486206 246.509354,462.255768 246.015320,465.111938 
	C245.511932,468.022217 245.546509,471.034515 244.931488,473.913757 
	C244.407913,476.364929 243.433319,478.751221 242.413940,481.058228 
	C240.593643,485.177826 237.023376,485.433472 233.199921,484.873047 
	C229.122864,484.275482 226.861221,485.847351 227.012802,490.132416 
	C227.168793,494.542328 227.446396,498.947937 227.688889,503.711029 
	C228.773727,503.249756 229.764908,502.828308 230.355927,502.576996 
	C240.426605,506.251404 235.132996,512.884705 233.261826,519.173828 
	C228.815659,519.362366 226.208954,521.831177 226.924942,527.176575 
	C227.032867,527.982300 226.275360,528.904053 225.552765,529.888000 
M228.780258,358.816620 
	C228.780258,357.422394 228.780258,356.028168 228.780258,354.633942 
	C228.119431,354.757751 227.458603,354.881531 226.797775,355.005310 
	C227.310959,356.450928 227.824142,357.896515 228.780258,358.816620 
M228.780167,438.816467 
	C228.780167,437.422333 228.780167,436.028229 228.780167,434.634094 
	C228.119415,434.757843 227.458664,434.881622 226.797913,435.005371 
	C227.311035,436.450897 227.824158,437.896423 228.780167,438.816467 
M230.723267,509.524841 
	C230.988297,509.272797 231.255814,509.023071 231.504410,508.755676 
	C231.510818,508.748810 231.309723,508.549042 231.205368,508.439240 
	C230.940262,508.691589 230.675156,508.943939 230.723267,509.524841 
z"/>
<path fill="#FCFCFC" opacity="1.000000" stroke="none" 
	d="
M439.021637,154.029938 
	C450.819763,170.497604 449.388214,192.333969 439.093658,206.265335 
	C427.381439,222.115189 406.371063,229.248581 387.527954,223.817047 
	C368.226471,218.253372 354.343597,202.105347 353.370758,182.273041 
	C352.127167,156.922546 370.948944,137.668915 393.618896,135.028000 
	C412.093750,132.875778 427.325134,138.861511 439.021637,154.029938 
z"/>
<path fill="#F3F3F3" opacity="1.000000" stroke="none" 
	d="
M288.515167,184.643616 
	C282.436462,183.941406 279.914673,181.773849 280.053375,177.736511 
	C280.187958,173.819397 283.416382,171.099594 288.480560,171.074112 
	C301.786804,171.007111 315.094116,171.042877 328.400360,171.133774 
	C333.483490,171.168503 336.403473,173.765289 336.504395,177.984818 
	C336.602386,182.080704 333.555725,184.680786 328.377502,184.692581 
	C315.237457,184.722549 302.097290,184.674377 288.515167,184.643616 
z"/>
<path fill="#F3F3F3" opacity="1.000000" stroke="none" 
	d="
M507.825195,171.045868 
	C510.895660,171.411209 514.047302,171.003540 515.934937,172.357758 
	C517.860901,173.739517 519.894409,177.186447 519.416016,179.119049 
	C518.871582,181.318329 515.651001,184.341858 513.503357,184.416672 
	C499.392700,184.908112 485.256927,184.790207 471.131134,184.665604 
	C466.870880,184.628021 464.005280,181.488007 464.128082,177.783707 
	C464.257721,173.872131 467.176880,171.181870 471.950623,171.129242 
	C483.749786,170.999146 495.551086,171.061295 507.825195,171.045868 
z"/>
<path fill="#F6F6F6" opacity="1.000000" stroke="none" 
	d="
M324.726868,97.028236 
	C334.195557,106.205261 343.424011,115.092148 352.555328,124.077759 
	C356.803314,128.257965 357.238678,131.805328 354.197510,134.853729 
	C351.076233,137.982437 346.805695,137.640625 342.776062,133.720322 
	C333.831482,125.018456 324.975891,116.225197 316.053284,107.500587 
	C313.090302,104.603340 311.014038,101.513885 313.855957,97.461983 
	C316.167938,94.165718 319.739655,94.013130 324.726868,97.028236 
z"/>
<path fill="#F6F6F6" opacity="1.000000" stroke="none" 
	d="
M443.927155,131.677307 
	C444.784424,129.079330 445.156433,126.345657 446.704834,124.762787 
	C455.670410,115.597626 464.890167,106.679985 474.091125,97.747810 
	C475.253448,96.619446 476.916016,95.015968 478.161499,95.166435 
	C480.895172,95.496666 484.258118,96.087311 485.999115,97.889969 
	C488.647949,100.632584 487.462891,104.227875 484.825592,106.796593 
	C475.287079,116.087006 465.766174,125.402107 455.991608,134.440735 
	C451.262268,138.813980 447.197968,137.778168 443.927155,131.677307 
z"/>
<path fill="#FBFBFB" opacity="1.000000" stroke="none" 
	d="
M393.883698,80.131104 
	C394.124054,77.208305 393.474365,73.886826 394.814087,72.530609 
	C396.727478,70.593719 400.162567,69.067551 402.829468,69.236252 
	C406.388489,69.461380 408.406769,72.680733 408.428009,76.409935 
	C408.496246,88.378372 408.517517,100.348572 408.374268,112.315895 
	C408.326111,116.336304 404.708588,119.557571 400.926392,119.492691 
	C396.926453,119.424080 393.921814,116.465309 393.877075,112.029640 
	C393.771484,101.557556 393.867615,91.083427 393.883698,80.131104 
z"/>
<path fill="#171717" opacity="1.000000" stroke="none" 
	d="
M482.776489,268.320099 
	C479.387146,267.987091 476.018402,266.595947 472.645569,266.586029 
	C425.318909,266.446747 377.991699,266.466248 330.664825,266.563263 
	C327.401062,266.569977 324.139160,267.496429 320.463745,268.062500 
	C318.356110,265.029175 319.990753,262.503174 322.474396,261.656616 
	C324.246460,261.052612 326.752075,262.506531 328.902832,263.136139 
	C330.788300,263.688110 332.634247,264.912781 334.499664,264.916840 
	C381.198151,265.018127 427.897125,264.948029 474.595215,265.121582 
	C477.331940,265.131744 480.062012,266.935272 482.776489,268.320099 
z"/>
<path fill="#111110" opacity="1.000000" stroke="none" 
	d="
M472.183411,548.063477 
	C473.700439,547.581970 475.468781,547.414429 477.683411,547.271484 
	C476.231384,547.656494 474.333069,548.016968 472.183411,548.063477 
z"/>
<path fill="#111110" opacity="1.000000" stroke="none" 
	d="
M324.036011,547.669800 
	C325.304047,547.386902 326.759155,547.459595 328.633728,547.657593 
	C327.443146,547.863647 325.833130,547.944458 324.036011,547.669800 
z"/>
<path fill="#111110" opacity="1.000000" stroke="none" 
	d="
M174.125092,541.864990 
	C173.988724,541.348755 174.108978,540.670715 174.613068,540.015259 
	C174.791840,540.593018 174.586777,541.148071 174.125092,541.864990 
z"/>
<path fill="#171717" opacity="1.000000" stroke="none" 
	d="
M483.901062,269.271545 
	C483.624817,269.327423 483.642242,269.302856 483.624084,269.314545 
	C484.019135,269.135010 484.432373,268.943787 484.845642,268.752563 
	C484.622864,268.906921 484.400085,269.061279 483.901062,269.271545 
z"/>
<path fill="#111110" opacity="1.000000" stroke="none" 
	d="
M391.059814,547.958496 
	C391.141052,547.708801 391.322723,547.633728 391.768829,547.689026 
	C391.742279,547.923950 391.451294,548.028564 391.059814,547.958496 
z"/>
<path fill="#111110" opacity="1.000000" stroke="none" 
	d="
M409.301300,548.835693 
	C409.185242,548.579407 409.277863,548.173157 409.703125,547.787720 
	C409.860565,548.100891 409.685272,548.393311 409.301300,548.835693 
z"/>
<path fill="#1D1D1D" opacity="1.000000" stroke="none" 
	d="
M173.703812,289.427765 
	C175.213150,290.195404 177.591751,291.303864 177.712067,292.618896 
	C177.835739,293.970795 175.755173,295.524323 174.234406,296.996643 
	C173.746902,294.622192 173.664185,292.240723 173.703812,289.427765 
z"/>
<path fill="#1D1D1D" opacity="1.000000" stroke="none" 
	d="
M224.813782,315.439850 
	C226.240967,314.507385 227.651382,313.946716 229.061798,313.386047 
	C229.348175,314.273895 230.098541,315.742859 229.840500,315.948914 
	C228.732681,316.833435 227.328262,317.346466 225.630127,317.995667 
	C225.084549,317.268188 224.940781,316.539886 224.813782,315.439850 
z"/>
<path fill="#1D1D1D" opacity="1.000000" stroke="none" 
	d="
M173.739792,300.402100 
	C177.708099,299.885620 177.891937,302.606171 178.003998,305.792297 
	C177.255234,306.283234 176.506653,306.363800 175.259766,306.075317 
	C174.451187,305.467621 174.140945,305.228943 173.830704,304.990265 
	C173.763016,303.596069 173.695328,302.201904 173.739792,300.402100 
z"/>
<path fill="#212121" opacity="1.000000" stroke="none" 
	d="
M173.798386,305.365662 
	C174.140945,305.228943 174.451187,305.467621 174.892792,305.972870 
	C174.604797,306.073303 174.185425,305.907166 173.798386,305.365662 
z"/>
<path fill="#1D1D1D" opacity="1.000000" stroke="none" 
	d="
M228.558792,359.079376 
	C227.824142,357.896515 227.310959,356.450928 226.797775,355.005310 
	C227.458603,354.881531 228.119431,354.757751 228.780258,354.633942 
	C228.780258,356.028168 228.780258,357.422394 228.558792,359.079376 
z"/>
<path fill="#1D1D1D" opacity="1.000000" stroke="none" 
	d="
M228.558716,439.079224 
	C227.824158,437.896423 227.311035,436.450897 226.797913,435.005371 
	C227.458664,434.881622 228.119415,434.757843 228.780167,434.634094 
	C228.780167,436.028229 228.780167,437.422333 228.558716,439.079224 
z"/>
<path fill="#1D1D1D" opacity="1.000000" stroke="none" 
	d="
M230.566650,509.360596 
	C230.675156,508.943939 230.940262,508.691589 231.205383,508.439240 
	C231.309723,508.549042 231.510818,508.748810 231.504410,508.755676 
	C231.255814,509.023071 230.988297,509.272797 230.566650,509.360596 
z"/>
</svg>