<svg version="1.1" id="Layer_1" xmlns="http://www.w3.org/2000/svg" xmlns:xlink="http://www.w3.org/1999/xlink" x="0px" y="0px"
	 width="100%" viewBox="0 0 1024 1024" enable-background="new 0 0 1024 1024" xml:space="preserve">
<path fill="#FEFFFC" opacity="1.000000" stroke="none" 
	d="
M548.000000,1025.000000 
	C365.333344,1025.000000 183.166672,1025.000000 1.000000,1025.000000 
	C1.000000,683.666687 1.000000,342.333344 1.000000,1.000000 
	C342.333344,1.000000 683.666687,1.000000 1025.000000,1.000000 
	C1025.000000,342.333344 1025.000000,683.666687 1025.000000,1025.000000 
	C866.166687,1025.000000 707.333313,1025.000000 548.000000,1025.000000 
M608.574097,127.952530 
	C608.797913,127.654816 609.021790,127.357094 609.838196,126.789398 
	C612.576782,123.930084 615.315430,121.070770 618.603882,117.913979 
	C618.811584,117.555893 619.019287,117.197807 619.846680,116.435379 
	C621.938110,112.466248 622.008118,108.644135 618.167908,105.794281 
	C614.578857,103.130844 611.019104,103.917099 607.947266,107.021484 
	C595.907104,119.189331 583.834961,131.326050 571.872498,143.569946 
	C568.765076,146.750473 568.788940,151.468781 571.513977,154.336212 
	C574.333252,157.302826 578.795166,157.508087 582.237061,154.469131 
	C584.705750,152.289536 586.806152,149.692856 589.579895,147.011353 
	C589.773438,146.689209 589.966980,146.367065 590.037842,146.048965 
	C590.037842,146.048965 590.060486,146.169525 590.588623,145.983170 
	C590.781494,145.674301 590.974426,145.365433 591.046997,145.048996 
	C591.046997,145.048996 591.060364,145.168900 591.587830,144.982224 
	C591.780151,144.673157 591.972473,144.364090 592.044617,144.038055 
	C592.044617,144.038055 592.045532,144.159332 592.598999,143.974472 
	C592.838318,143.674606 593.077698,143.374741 593.883057,142.816818 
	C595.276367,141.293228 596.669739,139.769653 598.565979,137.984344 
	C598.760193,137.669388 598.954346,137.354446 599.031860,137.032486 
	C599.031860,137.032486 599.038940,137.149155 599.591797,136.961197 
	C599.837341,136.666504 600.082886,136.371811 600.889221,135.787094 
	C602.613647,133.939148 604.338074,132.091202 606.567200,129.983612 
	C606.762939,129.670013 606.958740,129.356400 607.036682,129.043991 
	C607.036682,129.043991 607.055237,129.160370 607.576233,128.969025 
	C607.766724,128.661118 607.957214,128.353210 608.037109,128.033630 
	C608.037109,128.033630 608.040833,128.144836 608.574097,127.952530 
M506.839142,131.086731 
	C506.839142,131.086731 506.728333,131.165756 506.827698,131.611847 
	C506.827698,131.611847 507.112823,131.969025 507.326874,132.641983 
	C509.800201,134.914764 512.495850,136.060364 516.460205,134.158005 
	C517.011841,133.794312 517.563416,133.430618 518.038818,133.041000 
	C518.038818,133.041000 518.037170,133.121490 518.548340,132.933975 
	C518.733826,132.632614 518.919312,132.331238 519.026611,132.025757 
	C519.026611,132.025757 519.057434,132.097748 519.711121,131.645721 
	C520.142883,129.748611 520.937195,127.853867 520.949463,125.954063 
	C521.051392,110.169281 521.025024,94.383514 520.979736,78.598213 
	C520.976135,77.336250 520.540405,76.075523 520.181885,74.167984 
	C519.170532,73.097496 518.159119,72.027008 516.634766,70.310104 
	C513.692505,70.853882 510.750183,71.397659 507.377625,72.068237 
	C507.108917,72.249245 506.965271,72.501472 506.283508,73.275871 
	C505.929657,76.043259 505.267487,78.811256 505.273010,81.577919 
	C505.304047,97.128952 505.495880,112.679672 505.644531,128.853775 
	C505.788544,129.242493 505.932556,129.631210 506.082642,130.564987 
	C506.349030,130.781982 506.615387,130.998978 506.839142,131.086731 
M410.043762,703.552429 
	C410.355133,703.673584 410.666504,703.794800 411.316437,704.097046 
	C411.316437,704.097046 411.699860,704.077332 411.983093,704.536987 
	C412.308655,704.643066 412.634216,704.749146 413.593811,705.042419 
	C414.031494,705.084778 414.469147,705.127136 415.549561,705.708008 
	C419.685730,705.765015 423.821899,705.822021 428.646240,706.016296 
	C429.109497,705.970276 429.572784,705.924255 430.762634,705.987061 
	C431.494385,705.949524 432.226135,705.912048 433.831757,706.016907 
	C435.892639,705.966980 437.953491,705.916992 440.922394,705.980042 
	C444.276764,705.944214 447.631134,705.908447 451.815247,706.017883 
	C453.214722,705.969788 454.614197,705.921692 456.905457,705.984924 
	C459.598938,705.948425 462.292389,705.911926 465.819977,706.020752 
	C467.226715,705.972229 468.633453,705.923706 470.960815,705.987305 
	C475.625763,705.951111 480.290680,705.914978 485.842133,706.021729 
	C488.232422,705.973816 490.622711,705.925964 493.747345,705.987854 
	C494.487030,705.951477 495.226715,705.915039 496.726410,706.020935 
	C497.494843,705.972900 498.263306,705.924866 499.901947,705.991699 
	C500.615509,707.632874 501.950043,709.272949 501.952881,710.915405 
	C502.056030,770.041321 502.025848,829.167480 502.065308,888.293579 
	C502.066833,890.558899 502.572540,892.823853 502.865845,895.743042 
	C503.264587,896.501892 503.663330,897.260803 504.139191,898.540344 
	C504.411682,898.754028 504.684143,898.967651 505.207672,899.778076 
	C506.463745,900.535095 507.719818,901.292175 509.548645,902.598572 
	C512.726318,902.080872 515.903931,901.563171 519.015747,901.011597 
	C519.015747,901.011597 519.026062,901.084961 519.549072,900.925598 
	C519.751343,900.634644 519.953552,900.343689 520.042297,900.044617 
	C520.042297,900.044617 520.053223,900.157837 520.576843,899.967896 
	C520.771790,899.663086 520.966797,899.358215 521.065613,899.068604 
	C521.065613,899.068604 521.107239,899.156555 521.754700,898.780701 
	C522.507080,896.308838 523.785034,893.863037 523.908691,891.360046 
	C524.220642,885.048401 524.009644,878.710999 524.013550,872.383911 
	C524.047852,816.940979 524.083374,761.497986 524.041016,706.036194 
	C524.041016,706.036194 524.043213,706.116028 524.506165,705.995178 
	C524.506165,705.995178 524.966248,705.864075 525.767700,706.013000 
	C526.850098,705.966003 527.932495,705.919006 529.838257,705.983521 
	C531.220642,705.948547 532.602966,705.913574 534.870117,706.022583 
	C537.259338,705.975098 539.648560,705.927612 542.852722,705.990112 
	C544.220581,705.953186 545.588440,705.916260 547.795532,706.022034 
	C549.209961,705.974365 550.624451,705.926758 552.964966,705.991089 
	C562.628723,705.954102 572.292542,705.917114 582.794617,706.022644 
	C584.207397,705.974976 585.620117,705.927246 587.673279,705.986633 
	C588.103149,705.950989 588.533020,705.915283 589.861389,706.022156 
	C592.586670,705.972839 595.311890,705.923523 598.763306,705.983948 
	C599.494690,705.946899 600.226074,705.909851 601.792175,706.017944 
	C603.199707,705.970215 604.607178,705.922424 606.809448,705.982666 
	C608.858154,705.614746 610.906860,705.246826 613.654419,704.873108 
	C616.465576,702.366638 619.276672,699.860168 622.573792,697.050903 
	C622.702271,696.704956 622.830750,696.359009 623.155396,695.768433 
	C623.155396,695.768433 623.103455,695.459229 623.714478,694.884216 
	C624.144409,692.971008 624.940796,691.058960 624.947021,689.144409 
	C625.003052,671.777649 624.921082,654.410461 625.021606,636.204285 
	C624.974121,634.790161 624.926697,633.376099 624.989807,631.035400 
	C624.952820,598.705017 624.915833,566.374573 625.021240,533.234924 
	C624.973633,532.143616 624.926025,531.052246 624.989441,529.034729 
	C624.997009,519.868225 625.018311,510.701721 625.009888,501.535217 
	C624.971069,459.371277 624.923950,417.207336 625.022095,374.204285 
	C624.974609,372.790131 624.927124,371.376007 624.990479,369.035431 
	C624.950623,361.039215 624.910828,353.042969 625.000549,344.493164 
	C624.833069,343.973114 624.665649,343.453033 624.278442,342.203400 
	C623.883789,341.300903 623.489136,340.398407 623.166138,339.212708 
	C623.166138,339.212708 622.973083,338.993439 622.904053,338.373749 
	C622.627563,338.073730 622.351074,337.773712 622.054321,336.824402 
	C619.338440,334.645172 616.622559,332.465973 613.118774,329.999054 
	C611.517273,329.663483 609.916565,329.041931 608.314148,329.037445 
	C595.224426,329.000732 582.134338,329.079132 568.354187,328.985352 
	C567.889648,329.031586 567.425049,329.077820 566.034180,329.013458 
	C528.037415,329.049408 490.040619,329.085388 451.354248,328.984131 
	C450.889984,329.029938 450.425690,329.075714 449.035248,329.010681 
	C442.038452,329.047821 435.041687,329.084961 427.280487,328.980164 
	C426.507538,329.027100 425.734619,329.074005 424.062439,329.010284 
	C420.075256,329.431671 416.088043,329.853058 411.460571,330.453125 
	C408.607117,333.476105 405.753662,336.499084 402.285126,340.098236 
	C401.852905,342.694733 401.044006,345.291016 401.042603,347.887756 
	C400.981659,460.799835 400.984741,573.711975 401.043945,686.624084 
	C401.045227,689.059814 401.789825,691.495239 402.256409,694.615845 
	C404.523621,697.334595 406.790833,700.053345 409.468292,703.022583 
	C409.468292,703.022583 409.928619,703.160706 409.953308,703.060608 
	C409.953308,703.060608 409.850250,703.058533 410.043762,703.552429 
M469.942932,256.042755 
	C469.942932,256.042755 469.818939,256.068848 470.000061,256.602875 
	C470.314972,256.791046 470.629852,256.979218 470.961639,257.045593 
	C470.961639,257.045593 470.838684,257.046844 471.019714,257.599609 
	C471.323151,257.832550 471.626587,258.065491 472.184875,258.860565 
	C473.430817,259.914337 474.676788,260.968109 476.274811,262.536682 
	C477.162567,263.063599 478.050323,263.590485 478.963867,264.041962 
	C478.963867,264.041962 478.884247,264.037476 479.095184,264.517426 
	C479.394073,264.667999 479.692963,264.818573 480.176697,265.166046 
	C480.176697,265.166046 480.422760,265.054688 480.788269,265.597260 
	C481.185455,265.764984 481.582611,265.932709 482.229797,266.585388 
	C482.735870,266.745239 483.241913,266.905090 484.013062,267.538666 
	C484.334320,267.667725 484.655609,267.796753 485.264648,268.123901 
	C485.264648,268.123901 485.612701,268.093750 485.926758,268.575470 
	C486.277466,268.693390 486.628143,268.811310 487.289368,269.117096 
	C487.289368,269.117096 487.650879,269.085510 487.952209,269.555054 
	C488.291046,269.667603 488.629883,269.780121 489.550995,270.209869 
	C490.365479,270.476410 491.179932,270.742950 492.526123,271.521698 
	C501.192596,275.039032 510.306641,275.883667 519.407532,274.746887 
	C524.587036,274.099945 529.552612,271.739929 535.180176,270.711212 
	C563.263306,259.923950 578.725220,228.446335 569.977600,200.061859 
	C561.649719,173.039352 534.194397,152.303894 502.423859,158.112259 
	C486.192139,161.079788 472.759186,169.091812 463.412323,183.936325 
	C463.224091,184.279724 463.035858,184.623123 462.308533,185.273773 
	C461.839478,186.398285 461.370453,187.522797 460.334412,189.084045 
	C459.525238,191.048477 458.716064,193.012909 457.981598,194.981873 
	C457.981598,194.981873 457.952148,194.913101 457.423798,195.340698 
	C457.229187,196.219498 457.034576,197.098312 456.941925,197.970367 
	C456.941925,197.970367 456.915527,197.871658 456.314178,198.351913 
	C452.635864,211.515717 452.095062,224.551331 457.879272,237.694260 
	C457.879272,237.694260 458.067688,238.010315 458.068207,238.675278 
	C458.697083,239.811096 459.325958,240.946915 459.986420,242.016998 
	C459.986420,242.016998 459.913513,242.018951 460.008179,242.608124 
	C460.330750,243.088974 460.653320,243.569824 461.006958,244.010178 
	C461.006958,244.010178 460.956787,244.019470 461.072479,244.646393 
	C461.679291,245.483109 462.286072,246.319809 462.909302,247.061157 
	C462.909302,247.061157 462.821930,247.102768 462.979614,247.721497 
	C463.620636,248.530441 464.261658,249.339386 464.950867,250.059341 
	C464.950867,250.059341 464.853851,250.030518 465.040222,250.640182 
	C465.337372,250.935989 465.634521,251.231796 465.985382,252.111038 
	C466.902191,253.096573 467.819000,254.082108 468.998840,255.579086 
	C469.315186,255.775848 469.631561,255.972610 469.942932,256.042755 
M456.112854,152.047043 
	C456.112854,152.047043 456.133820,152.158310 456.782166,151.698151 
	C456.199860,149.092346 455.617523,146.486557 454.774017,143.273453 
	C447.247559,135.833282 439.721100,128.393097 431.929749,120.462822 
	C431.634155,120.244423 431.338593,120.026016 430.781708,119.206169 
	C426.244080,114.787354 421.706482,110.368530 416.742310,105.355133 
	C413.896240,103.930077 411.110474,103.412567 407.860565,106.043877 
	C404.068359,110.949005 403.815033,113.966133 408.012604,118.287910 
	C419.737671,130.359879 431.644073,142.258682 443.629303,154.073257 
	C447.403717,157.793945 450.454132,157.594238 455.616211,153.868744 
	C455.819214,153.266281 456.022217,152.663803 456.112854,152.047043 
M426.619904,216.951096 
	C426.904633,216.660324 427.189362,216.369537 428.079132,215.725082 
	C431.898804,209.896713 429.289490,203.253616 422.585938,203.125748 
	C405.349976,202.796951 388.096497,202.797195 370.868652,203.301636 
	C368.430817,203.373016 365.144867,206.550995 363.966125,209.087814 
	C362.621704,211.981140 363.515839,215.620361 368.123016,217.734787 
	C386.911438,217.824249 405.699829,217.921539 424.488373,217.963821 
	C425.030518,217.965042 425.573944,217.383240 426.037445,217.045563 
	C426.037445,217.045563 426.027313,217.129013 426.619904,216.951096 
M218.060410,811.059570 
	C218.060410,811.059570 218.100830,811.157043 218.768738,810.928284 
	C222.081390,808.403748 223.075546,805.024231 223.066498,800.935486 
	C222.992752,767.632935 223.042603,734.330078 223.004181,701.060730 
	C223.004181,701.060730 223.057297,701.090027 223.968735,700.892456 
	C239.011246,700.889587 254.064362,701.200012 269.089783,700.692078 
	C273.571594,700.540527 277.975861,698.096252 282.571320,696.582092 
	C282.571320,696.582092 282.702301,696.435242 283.266113,696.107849 
	C284.862671,692.409912 286.459229,688.711914 288.267822,684.095398 
	C288.294922,619.137390 288.326416,554.179382 288.347260,489.221405 
	C288.357269,458.074493 288.346588,426.927582 288.346771,395.780670 
	C288.346802,390.279755 288.310944,384.791534 283.751984,380.251740 
	C283.751984,380.251740 283.434235,380.080627 283.070892,379.563873 
	C279.153168,375.321625 274.060883,374.434662 268.622955,374.442078 
	C253.528915,374.462646 238.434830,374.449219 223.018234,374.449219 
	C223.018234,372.440002 223.018265,370.792542 223.018250,369.145111 
	C223.017929,347.653839 223.056290,326.162506 222.999023,304.671387 
	C222.974701,295.546234 215.970490,290.755615 206.966766,294.023285 
	C205.958099,294.957764 204.949432,295.892242 203.271332,297.173340 
	C202.508972,300.156433 201.112976,303.133820 201.085922,306.123566 
	C200.894562,327.266510 200.984146,348.412018 200.984085,369.556702 
	C200.984070,371.170563 200.984085,372.784424 200.984085,374.471008 
	C185.483765,374.471008 170.501343,374.455505 155.519012,374.478516 
	C149.402786,374.487915 143.645264,375.460663 139.288147,381.017242 
	C139.034027,381.224792 138.917648,381.492249 138.299881,382.168640 
	C137.194565,386.074982 135.131424,389.979492 135.124130,393.887909 
	C134.945663,489.521423 135.000305,585.155334 134.956345,680.789185 
	C134.953140,687.765137 137.357941,693.362427 143.279099,697.768860 
	C143.279099,697.768860 143.640106,697.885864 144.193253,698.249207 
	C146.032501,698.923523 147.839325,700.054443 149.716965,700.187744 
	C155.666641,700.610168 161.641830,700.779358 167.608932,700.828003 
	C178.673172,700.918213 189.738678,700.853821 201.009827,700.853821 
	C201.009827,703.045105 201.009918,704.686279 201.009811,706.327393 
	C201.007614,737.594604 200.925079,768.862427 201.131577,800.128235 
	C201.151520,803.145081 202.964981,806.150146 204.052032,809.616821 
	C204.231171,809.912537 204.493607,810.058411 205.176682,810.718567 
	C209.428192,813.376953 213.724533,814.524231 218.060410,811.059570 
M657.553345,217.537369 
	C660.800110,215.474442 662.598999,212.693771 661.275940,208.792969 
	C659.880737,204.679779 656.806274,202.908768 652.474792,202.977295 
	C646.495422,203.071915 640.513489,203.002548 634.532654,203.002304 
	C624.398499,203.001892 614.264282,203.001755 604.130127,202.999100 
	C600.247192,202.998077 597.088867,204.615845 596.103455,208.365311 
	C595.227905,211.696930 595.144165,215.402939 600.102722,217.735489 
	C605.908569,217.877304 611.715088,218.158096 617.520203,218.132721 
	C630.645447,218.075378 643.770081,217.866882 657.553345,217.537369 
M755.182129,305.046234 
	C748.936035,308.844299 746.136292,314.684082 746.131775,321.705231 
	C746.070618,417.697418 746.095215,513.689636 746.104797,609.681885 
	C746.105408,615.627563 748.014893,620.731812 753.017395,624.865662 
	C753.244873,625.033569 753.499329,625.103516 754.126526,625.721191 
	C758.201233,626.819885 762.255310,628.766418 766.354370,628.866455 
	C781.778259,629.242676 797.216858,629.017334 812.986145,629.017334 
	C812.986145,631.080017 812.986267,632.711731 812.986206,634.343445 
	C812.985291,657.988281 812.960938,681.633240 813.027405,705.277893 
	C813.032715,707.186218 813.660828,709.092773 813.948486,711.618347 
	C814.256226,712.093018 814.563965,712.567749 815.058533,713.684814 
	C816.356445,714.837585 817.654358,715.990417 819.229919,717.753113 
	C820.491089,718.104919 821.752258,718.456787 823.760071,718.971680 
	C824.949463,718.688293 826.138916,718.404907 827.707275,718.195435 
	C827.707275,718.195435 828.004333,717.948914 828.653076,717.949585 
	C829.489441,717.317871 830.325806,716.686157 831.777222,715.832092 
	C832.529236,714.559143 833.281250,713.286255 834.512939,711.552124 
	C834.637146,710.704407 834.761353,709.856750 835.059998,708.084778 
	C835.060425,681.783752 835.060852,655.482727 835.980835,629.036133 
	C851.278320,629.029663 866.575928,629.047241 881.873169,628.983765 
	C883.627502,628.976501 885.379944,628.515625 887.880310,628.200745 
	C892.393738,626.968933 896.128601,624.740906 898.741882,619.845154 
	C899.499878,616.845337 900.916809,613.846313 900.920410,610.845581 
	C901.036377,514.166443 901.042480,417.487152 900.894104,320.808105 
	C900.889404,317.746948 899.083435,314.688568 898.091064,310.961945 
	C895.800232,308.949707 893.509338,306.937500 890.829041,304.261230 
	C887.151855,303.554596 883.485107,302.307983 879.795593,302.236053 
	C864.897461,301.945618 849.992310,302.017395 835.090088,301.023712 
	C835.028870,278.346588 834.967651,255.669479 835.038391,232.282181 
	C834.670166,230.749298 834.301941,229.216415 833.973450,226.924194 
	C832.003235,225.234741 830.033020,223.545288 827.743408,221.347580 
	C827.165588,221.274323 826.587769,221.201065 825.263733,220.967361 
	C824.505981,221.019547 823.748291,221.071716 822.255493,220.995331 
	C815.418945,223.309738 813.003662,226.581131 812.996460,233.749542 
	C812.975281,254.875992 812.987488,276.002472 812.986694,297.128937 
	C812.986633,298.734802 812.986694,300.340698 812.986694,302.121155 
	C797.162598,302.121155 781.875854,301.946014 766.598694,302.250305 
	C763.001038,302.321960 759.435547,304.009979 755.182129,305.046234 
z"/>
<path fill="#FECF1B" opacity="1.000000" stroke="none" 
	d="
M449.961426,329.121490 
	C450.425690,329.075714 450.889984,329.029938 452.004181,329.329590 
	C453.302460,329.785614 453.950745,329.992706 454.599121,329.993011 
	C490.810516,330.009521 527.021912,330.017578 563.233276,329.972443 
	C564.476013,329.970917 565.718140,329.419312 566.960510,329.124084 
	C567.425049,329.077820 567.889648,329.031586 569.004639,329.330383 
	C581.208374,329.786438 592.761719,329.884369 604.314758,330.017090 
	C607.512695,330.053833 610.709473,330.194000 613.906738,330.286743 
	C616.622559,332.465973 619.338440,334.645172 622.122192,337.454468 
	C622.451050,338.387512 622.712097,338.690491 622.973083,338.993439 
	C622.973083,338.993439 623.166138,339.212708 623.110718,339.774292 
	C623.536255,341.201569 624.017212,342.067291 624.498169,342.932983 
	C624.665649,343.453033 624.833069,343.973114 624.660645,345.076080 
	C624.507080,353.759949 624.693359,361.860901 624.879639,369.961853 
	C624.927124,371.376007 624.974609,372.790131 624.673828,374.928833 
	C624.214966,376.302246 624.007690,376.951111 624.007446,377.600037 
	C623.991272,427.143860 623.984924,476.687683 624.027466,526.231445 
	C624.028503,527.474915 624.582397,528.717773 624.878418,529.960938 
	C624.926025,531.052246 624.973633,532.143616 624.674072,533.945129 
	C624.216858,535.303467 624.011047,535.951538 624.010681,536.599731 
	C623.993286,567.146362 623.983398,597.693054 624.029724,628.239624 
	C624.031616,629.480835 624.583557,630.721191 624.879211,631.961975 
	C624.926697,633.376099 624.974121,634.790161 624.673462,636.928833 
	C623.918030,656.921997 623.510742,676.190613 623.103516,695.459229 
	C623.103455,695.459229 623.155396,695.768433 622.824463,696.046387 
	C622.358337,696.667419 622.223083,697.010559 622.087830,697.353699 
	C619.276672,699.860168 616.465576,702.366638 613.035522,704.615479 
	C610.282593,704.863525 608.148682,705.369080 606.014709,705.874634 
	C604.607178,705.922424 603.199707,705.970215 601.191650,705.715332 
	C599.739807,705.566528 598.888489,705.720398 598.037170,705.874268 
	C595.311890,705.923523 592.586670,705.972839 589.270325,705.741150 
	C588.130432,705.599976 587.581665,705.739746 587.032898,705.879517 
	C585.620117,705.927246 584.207397,705.974976 582.099487,705.684692 
	C572.194641,705.241333 562.984924,705.120361 553.774963,705.067810 
	C553.197754,705.064514 552.617615,705.596252 552.038879,705.879089 
	C550.624451,705.926758 549.209961,705.974365 547.142456,705.700684 
	C545.005493,705.546265 543.521667,705.713196 542.037781,705.880127 
	C539.648560,705.927612 537.259338,705.975098 534.360107,705.601868 
	C531.941772,703.335754 530.263611,703.101074 529.014893,705.872070 
	C527.932495,705.919006 526.850098,705.966003 525.257202,705.790771 
	C524.512268,705.750977 524.277710,705.933533 524.043213,706.116028 
	C524.043213,706.116028 524.041016,706.036194 523.671509,706.109497 
	C522.869568,708.158691 522.061768,710.134094 522.059387,712.110474 
	C521.991333,767.682312 522.035461,823.254211 521.965332,878.825989 
	C521.956726,885.603210 521.406494,892.379700 521.107239,899.156555 
	C521.107239,899.156555 521.065613,899.068604 520.854004,899.159180 
	C520.445984,899.552429 520.249634,899.855164 520.053223,900.157837 
	C520.053223,900.157837 520.042297,900.044617 519.844421,900.139160 
	C519.439697,900.517456 519.232910,900.801208 519.026123,901.084961 
	C519.026062,901.084961 519.015747,901.011597 518.638672,901.016479 
	C515.166321,901.363953 512.071106,901.706604 508.975861,902.049255 
	C507.719818,901.292175 506.463745,900.535095 505.002686,899.237305 
	C504.552521,898.470886 504.307281,898.245239 504.062073,898.019653 
	C503.663330,897.260803 503.264587,896.501892 503.179626,895.135010 
	C503.661163,892.895874 503.974915,891.264893 503.975616,889.633728 
	C504.000977,829.943115 503.997345,770.252441 503.997101,710.561829 
	C503.997101,709.564209 504.206970,708.501587 503.931915,707.585388 
	C503.583069,706.423401 503.072723,704.840820 502.189362,704.456116 
	C501.477905,704.146301 500.108948,705.346558 499.031738,705.876831 
	C498.263306,705.924866 497.494843,705.972900 496.209229,705.681824 
	C494.799042,705.521118 493.906006,705.699585 493.013000,705.878052 
	C490.622711,705.925964 488.232422,705.973816 485.095886,705.674683 
	C479.579834,705.510132 474.810028,705.692688 470.040192,705.875244 
	C468.633453,705.923706 467.226715,705.972229 465.313904,705.572510 
	C461.741486,703.790405 458.680695,702.521606 456.013672,705.873657 
	C454.614197,705.921692 453.214722,705.969788 451.306885,705.563965 
	C447.093750,703.794617 443.386322,702.441650 440.014374,705.867065 
	C437.953491,705.916992 435.892639,705.966980 433.211609,705.715088 
	C431.739655,705.568237 430.887848,705.723206 430.036041,705.878174 
	C429.572784,705.924255 429.109497,705.970276 428.074829,705.694824 
	C423.304565,705.305420 419.105682,705.237488 414.906830,705.169556 
	C414.469147,705.127136 414.031494,705.084778 413.123596,704.741455 
	C412.335571,704.319397 412.017700,704.198364 411.699860,704.077332 
	C411.699860,704.077332 411.316437,704.097046 411.022278,703.792847 
	C410.485016,703.244141 410.192413,703.100769 409.850250,703.058533 
	C409.850250,703.058533 409.953308,703.060608 409.907104,702.929443 
	C409.593292,702.789551 409.325653,702.780823 409.058044,702.772095 
	C406.790833,700.053345 404.523621,697.334595 402.482117,693.958740 
	C402.804749,691.649048 402.986145,689.996338 402.986450,688.343689 
	C402.999542,619.796326 402.996460,551.249023 402.995209,482.701660 
	C402.995026,474.282593 402.998260,465.863495 402.992035,457.444427 
	C402.962952,418.136993 402.931091,378.829529 402.900208,339.522095 
	C405.753662,336.499084 408.607117,333.476105 412.078552,330.596558 
	C416.784882,330.200317 420.873291,329.660645 424.961670,329.120972 
	C425.734619,329.074005 426.507538,329.027100 427.967865,329.327637 
	C435.757294,329.490570 442.859375,329.306030 449.961426,329.121490 
z"/>
<path fill="#191918" opacity="1.000000" stroke="none" 
	d="
M834.033203,712.013367 
	C833.281250,713.286255 832.529236,714.559143 831.105591,715.926025 
	C829.624084,716.662903 828.814209,717.305908 828.004272,717.948853 
	C828.004333,717.948914 827.707275,718.195435 827.182617,718.034729 
	C825.443115,718.185547 824.228271,718.497070 823.013489,718.808594 
	C821.752258,718.456787 820.491089,718.104919 819.082336,717.089233 
	C817.580383,715.297791 816.226013,714.170105 814.871704,713.042419 
	C814.563965,712.567749 814.256226,712.093018 814.276245,711.019897 
	C814.713562,710.108643 814.918518,709.796082 814.919006,709.483215 
	C814.956299,683.655090 814.964905,657.827026 815.014160,631.998901 
	C815.021545,628.124146 813.156738,627.068970 809.407837,626.914612 
	C790.869629,626.151489 772.203369,629.133423 753.780701,625.075562 
	C753.499329,625.103516 753.244873,625.033569 752.939819,624.289795 
	C751.574829,619.130310 749.180237,614.550232 749.165466,609.962524 
	C748.930359,536.996643 748.978333,464.029755 749.024597,391.063110 
	C749.031128,380.775879 749.529419,370.488617 749.514343,360.201813 
	C749.494629,346.727386 749.004639,333.252228 749.085815,319.779633 
	C749.127869,312.797241 750.959595,310.730896 756.738098,309.285431 
	C756.820190,307.931580 756.908875,306.470062 757.421204,304.998413 
	C760.793457,304.660919 763.740295,304.070587 766.690979,304.050629 
	C781.167114,303.952576 795.646240,303.870819 810.119995,304.082581 
	C814.935547,304.153015 815.703857,301.280823 815.679749,297.755280 
	C815.642822,292.351379 815.072449,286.951019 815.038574,281.547211 
	C814.945618,266.707916 814.996094,251.867569 815.027466,237.027710 
	C815.040039,231.104294 814.635315,224.930267 822.324585,222.902252 
	C822.678345,222.808975 822.774414,221.738998 822.990479,221.123886 
	C823.748291,221.071716 824.505981,221.019547 825.668945,221.341843 
	C826.737061,221.762833 827.399902,221.809341 828.062805,221.855835 
	C830.033020,223.545288 832.003235,225.234741 833.622253,227.423798 
	C833.816223,229.613052 834.361328,231.302704 834.906433,232.992355 
	C834.967651,255.669479 835.028870,278.346588 834.826660,301.722534 
	C835.997192,302.949707 837.421204,303.907349 838.866760,303.941132 
	C856.315491,304.348297 873.767395,304.618988 891.218506,304.925262 
	C893.509338,306.937500 895.800232,308.949707 898.062988,311.746521 
	C898.358215,319.653229 898.876709,326.773010 898.961975,333.897980 
	C899.113403,346.561401 899.040039,359.228058 898.994873,371.893158 
	C898.699524,454.672089 898.386353,537.450928 898.079041,620.229797 
	C896.128601,624.740906 892.393738,626.968933 887.240112,627.888672 
	C886.303345,627.429810 886.007263,627.155762 885.710144,627.154602 
	C869.718811,627.093994 853.727234,627.021301 837.736450,627.108948 
	C836.841003,627.113831 835.952820,628.459839 835.061279,629.181641 
	C835.060852,655.482727 835.060425,681.783752 834.652710,708.590088 
	C834.174744,710.068115 834.104004,711.040710 834.033203,712.013367 
z"/>
<path fill="#191918" opacity="1.000000" stroke="none" 
	d="
M204.839310,810.054443 
	C204.493607,810.058411 204.231171,809.912537 204.014191,808.955566 
	C203.652283,805.010620 203.054489,801.727539 203.046783,798.443054 
	C202.975067,767.816772 203.005295,737.190186 203.004425,706.563721 
	C203.004196,698.624939 202.424942,698.166016 194.534958,697.999512 
	C178.014648,697.650940 161.470276,698.893311 144.967514,697.269836 
	C144.549301,697.228699 144.083649,697.669739 143.640106,697.885864 
	C143.640106,697.885864 143.279099,697.768860 143.400482,697.289062 
	C143.312347,695.872131 143.426834,694.499512 142.843109,694.065247 
	C137.014618,689.728333 136.949493,683.552185 136.969849,677.173523 
	C137.049850,652.116821 137.006104,627.059753 137.006165,602.002808 
	C137.006302,538.949097 136.918411,475.895142 137.091461,412.841919 
	C137.119843,402.499542 138.294235,392.160309 138.938980,381.819641 
	C138.917648,381.492249 139.034027,381.224792 139.897400,380.992615 
	C143.593552,379.602020 146.569595,377.747589 149.800095,377.014465 
	C152.728668,376.349823 155.934799,376.941040 159.018143,376.919800 
	C170.950333,376.837555 182.882401,376.653687 194.814407,376.662994 
	C202.447174,376.668945 203.971298,375.233490 203.976990,367.228394 
	C203.983780,357.678528 204.094971,348.126740 203.937851,338.579437 
	C203.823303,331.617096 203.106781,324.660889 203.100723,317.701569 
	C203.094666,310.743530 203.638184,303.785034 203.940796,296.826721 
	C204.949432,295.892242 205.958099,294.957764 207.403275,294.335602 
	C208.236938,294.826141 208.668533,295.211456 209.026199,295.152008 
	C216.194489,293.960327 218.097885,295.522430 218.036789,302.568939 
	C218.029648,303.392212 217.882980,304.644501 218.332230,304.974365 
	C222.382919,307.948547 220.938354,312.231628 220.938065,316.021240 
	C220.937469,323.520508 220.541962,331.019562 220.324066,338.519135 
	C220.249969,341.069153 220.388977,343.638336 220.122971,346.166412 
	C219.825470,348.993958 217.819687,352.640442 218.944778,354.427338 
	C222.028534,359.325104 220.324615,364.239319 220.370224,369.067017 
	C220.427200,375.097351 222.178543,376.875763 228.189926,376.188721 
	C231.639984,375.794403 235.173264,376.070923 238.667572,376.131989 
	C249.492416,376.321136 260.323425,376.397125 271.135895,376.879242 
	C273.712524,376.994141 276.198486,378.616302 278.779541,379.359802 
	C280.276154,379.790894 281.879120,379.852661 283.434235,380.080627 
	C283.434235,380.080627 283.751984,380.251740 283.594879,380.756653 
	C284.294708,384.156219 285.151642,387.050934 286.004761,390.417664 
	C285.999542,487.784760 286.011047,584.679749 285.924347,681.574707 
	C285.922119,684.064209 284.824310,686.548584 284.271210,689.042908 
	C283.725891,691.502075 283.223511,693.970764 282.702301,696.435242 
	C282.702301,696.435242 282.571320,696.582092 282.106689,696.458740 
	C278.729950,697.045715 275.820068,698.355408 272.905334,698.366272 
	C257.373138,698.424438 241.839584,698.095276 226.307144,698.137390 
	C225.221207,698.140320 224.140457,700.061096 223.057297,701.090027 
	C223.057297,701.090027 223.004181,701.060730 222.627335,701.116699 
	C221.836609,702.993286 221.069687,704.812622 221.062653,706.634766 
	C220.978668,728.380676 221.426270,750.138184 220.850571,771.869141 
	C220.503525,784.969299 223.831360,798.414734 218.100830,811.157043 
	C218.100830,811.157043 218.060410,811.059570 217.644608,811.045166 
	C213.098969,810.705322 208.969147,810.379883 204.839310,810.054443 
z"/>
<path fill="#FECF1C" opacity="1.000000" stroke="none" 
	d="
M491.994415,271.009521 
	C491.179932,270.742950 490.365479,270.476410 489.101562,269.832855 
	C488.318390,269.332397 487.984619,269.208954 487.650879,269.085510 
	C487.650879,269.085510 487.289368,269.117096 486.972229,268.794189 
	C486.307617,268.345459 485.960175,268.219604 485.612701,268.093750 
	C485.612701,268.093750 485.264648,268.123901 484.978638,267.805115 
	C484.377747,267.345825 484.062866,267.205383 483.747986,267.064941 
	C483.241913,266.905090 482.735870,266.745239 481.929382,266.065613 
	C481.226898,265.382111 480.824829,265.218384 480.422760,265.054688 
	C480.422760,265.054688 480.176697,265.166046 479.961243,264.848450 
	C479.458618,264.366425 479.171417,264.201965 478.884247,264.037476 
	C478.884247,264.037476 478.963867,264.041962 478.925232,263.717773 
	C477.898651,262.936371 476.910706,262.479095 475.922760,262.021851 
	C474.676788,260.968109 473.430817,259.914337 471.969849,258.298859 
	C471.449432,257.507050 471.144043,257.276947 470.838684,257.046844 
	C470.838684,257.046844 470.961639,257.045593 470.853455,256.844757 
	C470.436493,256.452209 470.127716,256.260529 469.818939,256.068848 
	C469.818939,256.068848 469.942932,256.042755 469.831421,255.838165 
	C469.391907,255.444946 469.063843,255.256287 468.735809,255.067627 
	C467.819000,254.082108 466.902191,253.096573 465.882202,251.500885 
	C465.470642,250.603989 465.162262,250.317261 464.853851,250.030518 
	C464.853851,250.030518 464.950867,250.059341 464.954468,249.727066 
	C464.246063,248.630783 463.533997,247.866776 462.821930,247.102768 
	C462.821930,247.102768 462.909302,247.061157 462.934387,246.738113 
	C462.291931,245.616531 461.624359,244.817993 460.956787,244.019470 
	C460.956787,244.019470 461.006958,244.010178 460.967041,243.721649 
	C460.589233,242.961731 460.251373,242.490341 459.913513,242.018951 
	C459.913513,242.018951 459.986420,242.016998 459.979675,241.671051 
	C459.337891,240.220169 458.702789,239.115234 458.067688,238.010315 
	C458.067688,238.010315 457.879272,237.694260 457.919617,237.073639 
	C456.243225,226.765732 453.578552,217.172928 455.939240,207.162888 
	C456.648315,204.156296 456.610962,200.973648 456.915527,197.871658 
	C456.915527,197.871658 456.941925,197.970367 457.192932,197.792175 
	C457.613342,196.713684 457.782745,195.813400 457.952148,194.913101 
	C457.952148,194.913101 457.981598,194.981873 458.278198,194.837219 
	C459.350342,192.677505 460.125885,190.662415 460.901428,188.647324 
	C461.370453,187.522797 461.839478,186.398285 462.849304,184.983276 
	C463.565552,184.335205 463.741028,183.977631 463.916504,183.620056 
	C472.759186,169.091812 486.192139,161.079788 502.423859,158.112259 
	C534.194397,152.303894 561.649719,173.039352 569.977600,200.061859 
	C578.725220,228.446335 563.263306,259.923950 534.472168,270.408997 
	C523.925903,273.015869 514.016907,275.077362 503.685242,273.011017 
	C499.809906,272.235931 495.892578,271.670532 491.994415,271.009521 
z"/>
<path fill="#FECF1C" opacity="1.000000" stroke="none" 
	d="
M455.061523,154.200165 
	C450.454132,157.594238 447.403717,157.793945 443.629303,154.073257 
	C431.644073,142.258682 419.737671,130.359879 408.012604,118.287910 
	C403.815033,113.966133 404.068359,110.949005 408.681396,106.000046 
	C412.057770,105.954041 414.613312,105.951874 417.168884,105.949707 
	C421.706482,110.368530 426.244080,114.787354 431.022278,119.770233 
	C431.573456,120.540504 431.884033,120.746712 432.194641,120.952927 
	C439.721100,128.393097 447.247559,135.833282 454.899780,143.992188 
	C455.394958,147.193390 455.764374,149.675842 456.133820,152.158310 
	C456.133820,152.158310 456.112854,152.047043 455.864746,152.197754 
	C455.431610,152.965698 455.246582,153.582932 455.061523,154.200165 
z"/>
<path fill="#1E1D1D" opacity="1.000000" stroke="none" 
	d="
M756.997559,305.008545 
	C756.908875,306.470062 756.820190,307.931580 756.738098,309.285431 
	C750.959595,310.730896 749.127869,312.797241 749.085815,319.779633 
	C749.004639,333.252228 749.494629,346.727386 749.514343,360.201813 
	C749.529419,370.488617 749.031128,380.775879 749.024597,391.063110 
	C748.978333,464.029755 748.930359,536.996643 749.165466,609.962524 
	C749.180237,614.550232 751.574829,619.130310 752.839539,624.114990 
	C748.014893,620.731812 746.105408,615.627563 746.104797,609.681885 
	C746.095215,513.689636 746.070618,417.697418 746.131775,321.705231 
	C746.136292,314.684082 748.936035,308.844299 755.804810,305.003113 
	C756.617432,304.976166 756.807495,304.992340 756.997559,305.008545 
z"/>
<path fill="#FECF1C" opacity="1.000000" stroke="none" 
	d="
M598.063110,138.246094 
	C596.669739,139.769653 595.276367,141.293228 593.315918,143.029999 
	C592.514343,143.548553 592.279968,143.853943 592.045532,144.159332 
	C592.045532,144.159332 592.044617,144.038055 591.843506,144.144608 
	C591.448425,144.557068 591.254395,144.862976 591.060364,145.168884 
	C591.060364,145.168900 591.046997,145.048996 590.845520,145.150330 
	C590.449524,145.557632 590.255005,145.863586 590.060486,146.169525 
	C590.060486,146.169525 590.037842,146.048965 589.831848,146.166168 
	C589.440857,146.616333 589.255859,146.949280 589.070801,147.282227 
	C586.806152,149.692856 584.705750,152.289536 582.237061,154.469131 
	C578.795166,157.508087 574.333252,157.302826 571.513977,154.336212 
	C568.788940,151.468781 568.765076,146.750473 571.872498,143.569946 
	C583.834961,131.326050 595.907104,119.189331 607.947266,107.021484 
	C611.019104,103.917099 614.578857,103.130844 618.167908,105.794281 
	C622.008118,108.644135 621.938110,112.466248 619.268555,116.803452 
	C618.478271,117.518173 618.266113,117.864822 618.054016,118.211456 
	C615.315430,121.070770 612.576782,123.930084 609.270813,127.016190 
	C608.482544,127.543594 608.261658,127.844200 608.040833,128.144836 
	C608.040833,128.144836 608.037109,128.033630 607.835327,128.141327 
	C607.440796,128.552811 607.247986,128.856583 607.055237,129.160370 
	C607.055237,129.160370 607.036682,129.043991 606.832031,129.158554 
	C606.439148,129.596512 606.250854,129.919891 606.062561,130.243256 
	C604.338074,132.091202 602.613647,133.939148 600.323303,136.014191 
	C599.517944,136.543915 599.278442,136.846542 599.038940,137.149170 
	C599.038940,137.149155 599.031860,137.032486 598.827759,137.153076 
	C598.436768,137.597809 598.249939,137.921951 598.063110,138.246094 
z"/>
<path fill="#FECF1B" opacity="1.000000" stroke="none" 
	d="
M367.456085,217.081543 
	C363.515839,215.620361 362.621704,211.981140 363.966125,209.087814 
	C365.144867,206.550995 368.430817,203.373016 370.868652,203.301636 
	C388.096497,202.797195 405.349976,202.796951 422.585938,203.125748 
	C429.289490,203.253616 431.898804,209.896713 427.467529,215.974579 
	C426.579742,216.525726 426.303528,216.827377 426.027313,217.129013 
	C426.027313,217.129013 426.037445,217.045563 425.599243,217.034485 
	C405.926025,217.042786 386.691071,217.062164 367.456085,217.081543 
z"/>
<path fill="#FECF1B" opacity="1.000000" stroke="none" 
	d="
M599.437500,217.074844 
	C595.144165,215.402939 595.227905,211.696930 596.103455,208.365311 
	C597.088867,204.615845 600.247192,202.998077 604.130127,202.999100 
	C614.264282,203.001755 624.398499,203.001892 634.532654,203.002304 
	C640.513489,203.002548 646.495422,203.071915 652.474792,202.977295 
	C656.806274,202.908768 659.880737,204.679779 661.275940,208.792969 
	C662.598999,212.693771 660.800110,215.474442 656.898071,217.390869 
	C637.307739,217.187866 618.372620,217.131363 599.437500,217.074844 
z"/>
<path fill="#FECF1C" opacity="1.000000" stroke="none" 
	d="
M515.763367,134.305588 
	C512.495850,136.060364 509.800201,134.914764 507.367645,132.184738 
	C507.181732,131.540253 506.955017,131.353012 506.728333,131.165756 
	C506.728333,131.165756 506.839142,131.086731 506.814758,130.898529 
	C506.552460,130.480194 506.314545,130.250061 506.076599,130.019928 
	C505.932556,129.631210 505.788544,129.242493 505.993988,128.265045 
	C506.563049,126.391144 506.971710,125.106232 506.973572,123.820732 
	C506.997955,106.822174 506.965179,89.823540 506.946686,72.824921 
	C506.965271,72.501472 507.108917,72.249245 508.017059,72.019165 
	C511.486908,71.632233 514.317322,71.294380 517.147766,70.956520 
	C518.159119,72.027008 519.170532,73.097496 519.897583,74.766235 
	C519.411255,76.652084 519.035217,77.939461 519.033569,79.227303 
	C519.011292,96.850746 519.040710,114.474258 519.057373,132.097748 
	C519.057434,132.097748 519.026611,132.025757 518.818787,132.132874 
	C518.419739,132.533829 518.228455,132.827667 518.037170,133.121490 
	C518.037170,133.121490 518.038818,133.041000 517.723755,133.062561 
	C516.860229,133.491287 516.311829,133.898438 515.763367,134.305588 
z"/>
<path fill="#FDC606" opacity="1.000000" stroke="none" 
	d="
M402.592651,339.810181 
	C402.931091,378.829529 402.962952,418.136993 402.992035,457.444427 
	C402.998260,465.863495 402.995026,474.282593 402.995209,482.701660 
	C402.996460,551.249023 402.999542,619.796326 402.986450,688.343689 
	C402.986145,689.996338 402.804749,691.649048 402.447754,693.616211 
	C401.789825,691.495239 401.045227,689.059814 401.043945,686.624084 
	C400.984741,573.711975 400.981659,460.799835 401.042603,347.887756 
	C401.044006,345.291016 401.852905,342.694733 402.592651,339.810181 
z"/>
<path fill="#0A0A09" opacity="1.000000" stroke="none" 
	d="
M138.619431,381.994141 
	C138.294235,392.160309 137.119843,402.499542 137.091461,412.841919 
	C136.918411,475.895142 137.006302,538.949097 137.006165,602.002808 
	C137.006104,627.059753 137.049850,652.116821 136.969849,677.173523 
	C136.949493,683.552185 137.014618,689.728333 142.843109,694.065247 
	C143.426834,694.499512 143.312347,695.872131 143.298599,697.129028 
	C137.357941,693.362427 134.953140,687.765137 134.956345,680.789185 
	C135.000305,585.155334 134.945663,489.521423 135.124130,393.887909 
	C135.131424,389.979492 137.194565,386.074982 138.619431,381.994141 
z"/>
<path fill="#0A0A09" opacity="1.000000" stroke="none" 
	d="
M898.410461,620.037476 
	C898.386353,537.450928 898.699524,454.672089 898.994873,371.893158 
	C899.040039,359.228058 899.113403,346.561401 898.961975,333.897980 
	C898.876709,326.773010 898.358215,319.653229 898.076050,312.079987 
	C899.083435,314.688568 900.889404,317.746948 900.894104,320.808105 
	C901.042480,417.487152 901.036377,514.166443 900.920410,610.845581 
	C900.916809,613.846313 899.499878,616.845337 898.410461,620.037476 
z"/>
<path fill="#0A0A09" opacity="1.000000" stroke="none" 
	d="
M283.252563,379.822266 
	C281.879120,379.852661 280.276154,379.790894 278.779541,379.359802 
	C276.198486,378.616302 273.712524,376.994141 271.135895,376.879242 
	C260.323425,376.397125 249.492416,376.321136 238.667572,376.131989 
	C235.173264,376.070923 231.639984,375.794403 228.189926,376.188721 
	C222.178543,376.875763 220.427200,375.097351 220.370224,369.067017 
	C220.324615,364.239319 222.028534,359.325104 218.944778,354.427338 
	C217.819687,352.640442 219.825470,348.993958 220.122971,346.166412 
	C220.388977,343.638336 220.249969,341.069153 220.324066,338.519135 
	C220.541962,331.019562 220.937469,323.520508 220.938065,316.021240 
	C220.938354,312.231628 222.382919,307.948547 218.332230,304.974365 
	C217.882980,304.644501 218.029648,303.392212 218.036789,302.568939 
	C218.097885,295.522430 216.194489,293.960327 209.026199,295.152008 
	C208.668533,295.211456 208.236938,294.826141 207.762039,294.346619 
	C215.970490,290.755615 222.974701,295.546234 222.999023,304.671387 
	C223.056290,326.162506 223.017929,347.653839 223.018250,369.145111 
	C223.018265,370.792542 223.018234,372.440002 223.018234,374.449219 
	C238.434830,374.449219 253.528915,374.462646 268.622955,374.442078 
	C274.060883,374.434662 279.153168,375.321625 283.252563,379.822266 
z"/>
<path fill="#FDC606" opacity="1.000000" stroke="none" 
	d="
M499.466858,705.934265 
	C500.108948,705.346558 501.477905,704.146301 502.189362,704.456116 
	C503.072723,704.840820 503.583069,706.423401 503.931915,707.585388 
	C504.206970,708.501587 503.997101,709.564209 503.997101,710.561829 
	C503.997345,770.252441 504.000977,829.943115 503.975616,889.633728 
	C503.974915,891.264893 503.661163,892.895874 503.168335,894.807983 
	C502.572540,892.823853 502.066833,890.558899 502.065308,888.293579 
	C502.025848,829.167480 502.056030,770.041321 501.952881,710.915405 
	C501.950043,709.272949 500.615509,707.632874 499.466858,705.934265 
z"/>
<path fill="#FDC606" opacity="1.000000" stroke="none" 
	d="
M521.430969,898.968628 
	C521.406494,892.379700 521.956726,885.603210 521.965332,878.825989 
	C522.035461,823.254211 521.991333,767.682312 522.059387,712.110474 
	C522.061768,710.134094 522.869568,708.158691 523.710266,706.118958 
	C524.083374,761.497986 524.047852,816.940979 524.013550,872.383911 
	C524.009644,878.710999 524.220642,885.048401 523.908691,891.360046 
	C523.785034,893.863037 522.507080,896.308838 521.430969,898.968628 
z"/>
<path fill="#0A0A09" opacity="1.000000" stroke="none" 
	d="
M143.916687,698.067505 
	C144.083649,697.669739 144.549301,697.228699 144.967514,697.269836 
	C161.470276,698.893311 178.014648,697.650940 194.534958,697.999512 
	C202.424942,698.166016 203.004196,698.624939 203.004425,706.563721 
	C203.005295,737.190186 202.975067,767.816772 203.046783,798.443054 
	C203.054489,801.727539 203.652283,805.010620 203.961121,808.727478 
	C202.964981,806.150146 201.151520,803.145081 201.131577,800.128235 
	C200.925079,768.862427 201.007614,737.594604 201.009811,706.327393 
	C201.009918,704.686279 201.009827,703.045105 201.009827,700.853821 
	C189.738678,700.853821 178.673172,700.918213 167.608932,700.828003 
	C161.641830,700.779358 155.666641,700.610168 149.716965,700.187744 
	C147.839325,700.054443 146.032501,698.923523 143.916687,698.067505 
z"/>
<path fill="#0A0A09" opacity="1.000000" stroke="none" 
	d="
M203.606064,297.000031 
	C203.638184,303.785034 203.094666,310.743530 203.100723,317.701569 
	C203.106781,324.660889 203.823303,331.617096 203.937851,338.579437 
	C204.094971,348.126740 203.983780,357.678528 203.976990,367.228394 
	C203.971298,375.233490 202.447174,376.668945 194.814407,376.662994 
	C182.882401,376.653687 170.950333,376.837555 159.018143,376.919800 
	C155.934799,376.941040 152.728668,376.349823 149.800095,377.014465 
	C146.569595,377.747589 143.593552,379.602020 140.116516,380.937561 
	C143.645264,375.460663 149.402786,374.487915 155.519012,374.478516 
	C170.501343,374.455505 185.483765,374.471008 200.984085,374.471008 
	C200.984085,372.784424 200.984070,371.170563 200.984085,369.556702 
	C200.984146,348.412018 200.894562,327.266510 201.085922,306.123566 
	C201.112976,303.133820 202.508972,300.156433 203.606064,297.000031 
z"/>
<path fill="#1E1D1D" opacity="1.000000" stroke="none" 
	d="
M282.984192,696.271545 
	C283.223511,693.970764 283.725891,691.502075 284.271210,689.042908 
	C284.824310,686.548584 285.922119,684.064209 285.924347,681.574707 
	C286.011047,584.679749 285.999542,487.784760 286.300476,390.720154 
	C286.732056,392.529022 286.979218,394.507416 286.979645,396.485870 
	C286.999054,490.614777 286.990356,584.743713 287.041718,678.872620 
	C287.042816,680.919922 287.703064,682.966858 288.055786,685.013977 
	C286.459229,688.711914 284.862671,692.409912 282.984192,696.271545 
z"/>
<path fill="#0A0A09" opacity="1.000000" stroke="none" 
	d="
M288.161804,684.554688 
	C287.703064,682.966858 287.042816,680.919922 287.041718,678.872620 
	C286.990356,584.743713 286.999054,490.614777 286.979645,396.485870 
	C286.979218,394.507416 286.732056,392.529022 286.304260,390.248108 
	C285.151642,387.050934 284.294708,384.156219 283.672791,380.919403 
	C288.310944,384.791534 288.346802,390.279755 288.346771,395.780670 
	C288.346588,426.927582 288.357269,458.074493 288.347260,489.221405 
	C288.326416,554.179382 288.294922,619.137390 288.161804,684.554688 
z"/>
<path fill="#0A0A09" opacity="1.000000" stroke="none" 
	d="
M757.421204,304.998413 
	C756.807495,304.992340 756.617432,304.976166 756.141357,304.957184 
	C759.435547,304.009979 763.001038,302.321960 766.598694,302.250305 
	C781.875854,301.946014 797.162598,302.121155 812.986694,302.121155 
	C812.986694,300.340698 812.986633,298.734802 812.986694,297.128937 
	C812.987488,276.002472 812.975281,254.875992 812.996460,233.749542 
	C813.003662,226.581131 815.418945,223.309738 822.622986,221.059601 
	C822.774414,221.738998 822.678345,222.808975 822.324585,222.902252 
	C814.635315,224.930267 815.040039,231.104294 815.027466,237.027710 
	C814.996094,251.867569 814.945618,266.707916 815.038574,281.547211 
	C815.072449,286.951019 815.642822,292.351379 815.679749,297.755280 
	C815.703857,301.280823 814.935547,304.153015 810.119995,304.082581 
	C795.646240,303.870819 781.167114,303.952576 766.690979,304.050629 
	C763.740295,304.070587 760.793457,304.660919 757.421204,304.998413 
z"/>
<path fill="#0A0A09" opacity="1.000000" stroke="none" 
	d="
M753.953613,625.398376 
	C772.203369,629.133423 790.869629,626.151489 809.407837,626.914612 
	C813.156738,627.068970 815.021545,628.124146 815.014160,631.998901 
	C814.964905,657.827026 814.956299,683.655090 814.919006,709.483215 
	C814.918518,709.796082 814.713562,710.108643 814.301758,710.710815 
	C813.660828,709.092773 813.032715,707.186218 813.027405,705.277893 
	C812.960938,681.633240 812.985291,657.988281 812.986206,634.343445 
	C812.986267,632.711731 812.986145,631.080017 812.986145,629.017334 
	C797.216858,629.017334 781.778259,629.242676 766.354370,628.866455 
	C762.255310,628.766418 758.201233,626.819885 753.953613,625.398376 
z"/>
<path fill="#0A0A09" opacity="1.000000" stroke="none" 
	d="
M218.434784,811.042664 
	C223.831360,798.414734 220.503525,784.969299 220.850571,771.869141 
	C221.426270,750.138184 220.978668,728.380676 221.062653,706.634766 
	C221.069687,704.812622 221.836609,702.993286 222.652679,701.099976 
	C223.042603,734.330078 222.992752,767.632935 223.066498,800.935486 
	C223.075546,805.024231 222.081390,808.403748 218.434784,811.042664 
z"/>
<path fill="#1E1D1D" opacity="1.000000" stroke="none" 
	d="
M223.513016,700.991211 
	C224.140457,700.061096 225.221207,698.140320 226.307144,698.137390 
	C241.839584,698.095276 257.373138,698.424438 272.905334,698.366272 
	C275.820068,698.355408 278.729950,697.045715 282.028870,696.518921 
	C277.975861,698.096252 273.571594,700.540527 269.089783,700.692078 
	C254.064362,701.200012 239.011246,700.889587 223.513016,700.991211 
z"/>
<path fill="#FDC606" opacity="1.000000" stroke="none" 
	d="
M624.933960,529.497803 
	C624.582397,528.717773 624.028503,527.474915 624.027466,526.231445 
	C623.984924,476.687683 623.991272,427.143860 624.007446,377.600037 
	C624.007690,376.951111 624.214966,376.302246 624.602722,375.348389 
	C624.923950,417.207336 624.971069,459.371277 625.009888,501.535217 
	C625.018311,510.701721 624.997009,519.868225 624.933960,529.497803 
z"/>
<path fill="#FDC606" opacity="1.000000" stroke="none" 
	d="
M566.497314,329.068787 
	C565.718140,329.419312 564.476013,329.970917 563.233276,329.972443 
	C527.021912,330.017578 490.810516,330.009521 454.599121,329.993011 
	C453.950745,329.992706 453.302460,329.785614 452.348999,329.398193 
	C490.040619,329.085388 528.037415,329.049408 566.497314,329.068787 
z"/>
<path fill="#FDC606" opacity="1.000000" stroke="none" 
	d="
M519.384277,131.871735 
	C519.040710,114.474258 519.011292,96.850746 519.033569,79.227303 
	C519.035217,77.939461 519.411255,76.652084 519.959351,75.089355 
	C520.540405,76.075523 520.976135,77.336250 520.979736,78.598213 
	C521.025024,94.383514 521.051392,110.169281 520.949463,125.954063 
	C520.937195,127.853867 520.142883,129.748611 519.384277,131.871735 
z"/>
<path fill="#0A0A09" opacity="1.000000" stroke="none" 
	d="
M891.023804,304.593262 
	C873.767395,304.618988 856.315491,304.348297 838.866760,303.941132 
	C837.421204,303.907349 835.997192,302.949707 834.826416,302.188385 
	C849.992310,302.017395 864.897461,301.945618 879.795593,302.236053 
	C883.485107,302.307983 887.151855,303.554596 891.023804,304.593262 
z"/>
<path fill="#FDC606" opacity="1.000000" stroke="none" 
	d="
M506.615112,73.050400 
	C506.965179,89.823540 506.997955,106.822174 506.973572,123.820732 
	C506.971710,125.106232 506.563049,126.391144 505.988159,127.953415 
	C505.495880,112.679672 505.304047,97.128952 505.273010,81.577919 
	C505.267487,78.811256 505.929657,76.043259 506.615112,73.050400 
z"/>
<path fill="#0A0A09" opacity="1.000000" stroke="none" 
	d="
M835.520996,629.108887 
	C835.952820,628.459839 836.841003,627.113831 837.736450,627.108948 
	C853.727234,627.021301 869.718811,627.093994 885.710144,627.154602 
	C886.007263,627.155762 886.303345,627.429810 886.866577,627.920837 
	C885.379944,628.515625 883.627502,628.976501 881.873169,628.983765 
	C866.575928,629.047241 851.278320,629.029663 835.520996,629.108887 
z"/>
<path fill="#FDC606" opacity="1.000000" stroke="none" 
	d="
M624.934509,631.498657 
	C624.583557,630.721191 624.031616,629.480835 624.029724,628.239624 
	C623.983398,597.693054 623.993286,567.146362 624.010681,536.599731 
	C624.011047,535.951538 624.216858,535.303467 624.602844,534.349731 
	C624.915833,566.374573 624.952820,598.705017 624.934509,631.498657 
z"/>
<path fill="#FDC606" opacity="1.000000" stroke="none" 
	d="
M492.260254,271.265625 
	C495.892578,271.670532 499.809906,272.235931 503.685242,273.011017 
	C514.016907,275.077362 523.925903,273.015869 534.189331,270.129059 
	C529.552612,271.739929 524.587036,274.099945 519.407532,274.746887 
	C510.306641,275.883667 501.192596,275.039032 492.260254,271.265625 
z"/>
<path fill="#FDC606" opacity="1.000000" stroke="none" 
	d="
M456.614868,198.111786 
	C456.610962,200.973648 456.648315,204.156296 455.939240,207.162888 
	C453.578552,217.172928 456.243225,226.765732 457.933411,236.890167 
	C452.095062,224.551331 452.635864,211.515717 456.614868,198.111786 
z"/>
<path fill="#FDC606" opacity="1.000000" stroke="none" 
	d="
M623.408997,695.171753 
	C623.510742,676.190613 623.918030,656.921997 624.602417,637.348389 
	C624.921082,654.410461 625.003052,671.777649 624.947021,689.144409 
	C624.940796,691.058960 624.144409,692.971008 623.408997,695.171753 
z"/>
<path fill="#FDC606" opacity="1.000000" stroke="none" 
	d="
M367.789551,217.408173 
	C386.691071,217.062164 405.926025,217.042786 425.638916,217.048355 
	C425.573944,217.383240 425.030518,217.965042 424.488373,217.963821 
	C405.699829,217.921539 386.911438,217.824249 367.789551,217.408173 
z"/>
<path fill="#FDC606" opacity="1.000000" stroke="none" 
	d="
M599.770142,217.405167 
	C618.372620,217.131363 637.307739,217.187866 656.568909,217.482117 
	C643.770081,217.866882 630.645447,218.075378 617.520203,218.132721 
	C611.715088,218.158096 605.908569,217.877304 599.770142,217.405167 
z"/>
<path fill="#FDC606" opacity="1.000000" stroke="none" 
	d="
M613.512756,330.142883 
	C610.709473,330.194000 607.512695,330.053833 604.314758,330.017090 
	C592.761719,329.884369 581.208374,329.786438 569.349731,329.398987 
	C582.134338,329.079132 595.224426,329.000732 608.314148,329.037445 
	C609.916565,329.041931 611.517273,329.663483 613.512756,330.142883 
z"/>
<path fill="#FDC606" opacity="1.000000" stroke="none" 
	d="
M552.501953,705.935059 
	C552.617615,705.596252 553.197754,705.064514 553.774963,705.067810 
	C562.984924,705.120361 572.194641,705.241333 581.680298,705.613403 
	C572.292542,705.917114 562.628723,705.954102 552.501953,705.935059 
z"/>
<path fill="#FDC606" opacity="1.000000" stroke="none" 
	d="
M624.935059,369.498657 
	C624.693359,361.860901 624.507080,353.759949 624.595947,345.352875 
	C624.910828,353.042969 624.950623,361.039215 624.935059,369.498657 
z"/>
<path fill="#0A0A09" opacity="1.000000" stroke="none" 
	d="
M205.007996,810.386475 
	C208.969147,810.379883 213.098969,810.705322 217.692566,811.067139 
	C213.724533,814.524231 209.428192,813.376953 205.007996,810.386475 
z"/>
<path fill="#FDC606" opacity="1.000000" stroke="none" 
	d="
M449.498352,329.066101 
	C442.859375,329.306030 435.757294,329.490570 428.350067,329.398560 
	C435.041687,329.084961 442.038452,329.047821 449.498352,329.066101 
z"/>
<path fill="#FDC606" opacity="1.000000" stroke="none" 
	d="
M440.468384,705.923584 
	C443.386322,702.441650 447.093750,703.794617 450.892029,705.491333 
	C447.631134,705.908447 444.276764,705.944214 440.468384,705.923584 
z"/>
<path fill="#FDC606" opacity="1.000000" stroke="none" 
	d="
M415.228210,705.438782 
	C419.105682,705.237488 423.304565,705.305420 427.730743,705.626221 
	C423.821899,705.822021 419.685730,705.765015 415.228210,705.438782 
z"/>
<path fill="#FDC606" opacity="1.000000" stroke="none" 
	d="
M456.459564,705.929321 
	C458.680695,702.521606 461.741486,703.790405 464.896851,705.499878 
	C462.292389,705.911926 459.598938,705.948425 456.459564,705.929321 
z"/>
<path fill="#FDC606" opacity="1.000000" stroke="none" 
	d="
M424.512054,329.065613 
	C420.873291,329.660645 416.784882,330.200317 412.398682,330.507233 
	C416.088043,329.853058 420.075256,329.431671 424.512054,329.065613 
z"/>
<path fill="#FDC606" opacity="1.000000" stroke="none" 
	d="
M509.262268,902.323914 
	C512.071106,901.706604 515.166321,901.363953 518.671631,901.033386 
	C515.903931,901.563171 512.726318,902.080872 509.262268,902.323914 
z"/>
<path fill="#FDC606" opacity="1.000000" stroke="none" 
	d="
M470.500488,705.931274 
	C474.810028,705.692688 479.579834,705.510132 484.652649,705.603149 
	C480.290680,705.914978 475.625763,705.951111 470.500488,705.931274 
z"/>
<path fill="#FDC606" opacity="1.000000" stroke="none" 
	d="
M416.955597,105.652420 
	C414.613312,105.951874 412.057770,105.954041 409.013428,105.928856 
	C411.110474,103.412567 413.896240,103.930077 416.955597,105.652420 
z"/>
<path fill="#FDC606" opacity="1.000000" stroke="none" 
	d="
M606.412109,705.928650 
	C608.148682,705.369080 610.282593,704.863525 612.686035,704.618408 
	C610.906860,705.246826 608.858154,705.614746 606.412109,705.928650 
z"/>
<path fill="#FDC606" opacity="1.000000" stroke="none" 
	d="
M516.891235,70.633316 
	C514.317322,71.294380 511.486908,71.632233 508.232178,71.955765 
	C510.750183,71.397659 513.692505,70.853882 516.891235,70.633316 
z"/>
<path fill="#0A0A09" opacity="1.000000" stroke="none" 
	d="
M834.972412,232.637268 
	C834.361328,231.302704 833.816223,229.613052 833.602417,227.803467 
	C834.301941,229.216415 834.670166,230.749298 834.972412,232.637268 
z"/>
<path fill="#FDC606" opacity="1.000000" stroke="none" 
	d="
M456.458008,151.928223 
	C455.764374,149.675842 455.394958,147.193390 455.030334,144.295837 
	C455.617523,146.486557 456.199860,149.092346 456.458008,151.928223 
z"/>
<path fill="#FDC606" opacity="1.000000" stroke="none" 
	d="
M529.426575,705.927795 
	C530.263611,703.101074 531.941772,703.335754 533.917725,705.529846 
	C532.602966,705.913574 531.220642,705.948547 529.426575,705.927795 
z"/>
<path fill="#FDC606" opacity="1.000000" stroke="none" 
	d="
M460.617920,188.865692 
	C460.125885,190.662415 459.350342,192.677505 458.240845,194.834961 
	C458.716064,193.012909 459.525238,191.048477 460.617920,188.865692 
z"/>
<path fill="#0A0A09" opacity="1.000000" stroke="none" 
	d="
M814.965088,713.363647 
	C816.226013,714.170105 817.580383,715.297791 818.943481,716.784302 
	C817.654358,715.990417 816.356445,714.837585 814.965088,713.363647 
z"/>
<path fill="#0A0A09" opacity="1.000000" stroke="none" 
	d="
M823.386780,718.890137 
	C824.228271,718.497070 825.443115,718.185547 826.993164,717.997742 
	C826.138916,718.404907 824.949463,718.688293 823.386780,718.890137 
z"/>
<path fill="#FDC606" opacity="1.000000" stroke="none" 
	d="
M458.067932,238.342804 
	C458.702789,239.115234 459.337891,240.220169 459.963898,241.703918 
	C459.325958,240.946915 458.697083,239.811096 458.067932,238.342804 
z"/>
<path fill="#0A0A09" opacity="1.000000" stroke="none" 
	d="
M834.273071,711.782715 
	C834.104004,711.040710 834.174744,710.068115 834.565552,709.052246 
	C834.761353,709.856750 834.637146,710.704407 834.273071,711.782715 
z"/>
<path fill="#FDC606" opacity="1.000000" stroke="none" 
	d="
M462.900757,247.412140 
	C463.533997,247.866776 464.246063,248.630783 464.930389,249.771561 
	C464.261658,249.339386 463.620636,248.530441 462.900757,247.412140 
z"/>
<path fill="#FDC606" opacity="1.000000" stroke="none" 
	d="
M461.014648,244.332932 
	C461.624359,244.817993 462.291931,245.616531 462.926208,246.785797 
	C462.286072,246.319809 461.679291,245.483109 461.014648,244.332932 
z"/>
<path fill="#FDC606" opacity="1.000000" stroke="none" 
	d="
M542.445251,705.935181 
	C543.521667,705.713196 545.005493,705.546265 546.722839,705.629272 
	C545.588440,705.916260 544.220581,705.953186 542.445251,705.935181 
z"/>
<path fill="#FDC606" opacity="1.000000" stroke="none" 
	d="
M476.098785,262.279266 
	C476.910706,262.479095 477.898651,262.936371 478.912354,263.755493 
	C478.050323,263.590485 477.162567,263.063599 476.098785,262.279266 
z"/>
<path fill="#0A0A09" opacity="1.000000" stroke="none" 
	d="
M828.328674,717.949219 
	C828.814209,717.305908 829.624084,716.662903 830.798096,716.037170 
	C830.325806,716.686157 829.489441,717.317871 828.328674,717.949219 
z"/>
<path fill="#FDC606" opacity="1.000000" stroke="none" 
	d="
M493.380188,705.932983 
	C493.906006,705.699585 494.799042,705.521118 495.829224,705.610718 
	C495.226715,705.915039 494.487030,705.951477 493.380188,705.932983 
z"/>
<path fill="#0A0A09" opacity="1.000000" stroke="none" 
	d="
M827.903076,221.601715 
	C827.399902,221.809341 826.737061,221.762833 826.042053,221.422058 
	C826.587769,221.201065 827.165588,221.274323 827.903076,221.601715 
z"/>
<path fill="#FDC606" opacity="1.000000" stroke="none" 
	d="
M598.400269,705.929077 
	C598.888489,705.720398 599.739807,705.566528 600.774292,705.642761 
	C600.226074,705.909851 599.494690,705.946899 598.400269,705.929077 
z"/>
<path fill="#FDC606" opacity="1.000000" stroke="none" 
	d="
M430.399353,705.932617 
	C430.887848,705.723206 431.739655,705.568237 432.774658,705.643921 
	C432.226135,705.912048 431.494385,705.949524 430.399353,705.932617 
z"/>
<path fill="#FDC606" opacity="1.000000" stroke="none" 
	d="
M457.687988,195.126892 
	C457.782745,195.813400 457.613342,196.713684 457.141968,197.795532 
	C457.034576,197.098312 457.229187,196.219498 457.687988,195.126892 
z"/>
<path fill="#FDC606" opacity="1.000000" stroke="none" 
	d="
M624.388306,342.568176 
	C624.017212,342.067291 623.536255,341.201569 623.074890,339.915894 
	C623.489136,340.398407 623.883789,341.300903 624.388306,342.568176 
z"/>
<path fill="#FDC606" opacity="1.000000" stroke="none" 
	d="
M516.111816,134.231796 
	C516.311829,133.898438 516.860229,133.491287 517.761841,133.075531 
	C517.563416,133.430618 517.011841,133.794312 516.111816,134.231796 
z"/>
<path fill="#FDC606" opacity="1.000000" stroke="none" 
	d="
M587.353088,705.933105 
	C587.581665,705.739746 588.130432,705.599976 588.821045,705.669861 
	C588.533020,705.915283 588.103149,705.950989 587.353088,705.933105 
z"/>
<path fill="#FDC606" opacity="1.000000" stroke="none" 
	d="
M455.338867,154.034454 
	C455.246582,153.582932 455.431610,152.965698 455.920898,152.204895 
	C456.022217,152.663803 455.819214,153.266281 455.338867,154.034454 
z"/>
<path fill="#FDC606" opacity="1.000000" stroke="none" 
	d="
M459.960846,242.313538 
	C460.251373,242.490341 460.589233,242.961731 460.951477,243.741913 
	C460.653320,243.569824 460.330750,243.088974 459.960846,242.313538 
z"/>
<path fill="#FDC606" opacity="1.000000" stroke="none" 
	d="
M469.909485,256.335876 
	C470.127716,256.260529 470.436493,256.452209 470.845001,256.905640 
	C470.629852,256.979218 470.314972,256.791046 469.909485,256.335876 
z"/>
<path fill="#FDC606" opacity="1.000000" stroke="none" 
	d="
M463.664398,183.778183 
	C463.741028,183.977631 463.565552,184.335205 463.118866,184.829651 
	C463.035858,184.623123 463.224091,184.279724 463.664398,183.778183 
z"/>
<path fill="#FDC606" opacity="1.000000" stroke="none" 
	d="
M622.938599,338.683594 
	C622.712097,338.690491 622.451050,338.387512 622.132324,337.779114 
	C622.351074,337.773712 622.627563,338.073730 622.938599,338.683594 
z"/>
<path fill="#FDC606" opacity="1.000000" stroke="none" 
	d="
M426.323608,217.040054 
	C426.303528,216.827377 426.579742,216.525726 427.165039,216.151428 
	C427.189362,216.369537 426.904633,216.660324 426.323608,217.040054 
z"/>
<path fill="#FDC606" opacity="1.000000" stroke="none" 
	d="
M524.274658,706.055603 
	C524.277710,705.933533 524.512268,705.750977 524.856506,705.716309 
	C524.966248,705.864075 524.506165,705.995178 524.274658,706.055603 
z"/>
<path fill="#FDC606" opacity="1.000000" stroke="none" 
	d="
M464.947021,250.335358 
	C465.162262,250.317261 465.470642,250.603989 465.855347,251.209167 
	C465.634521,251.231796 465.337372,250.935989 464.947021,250.335358 
z"/>
<path fill="#FDC606" opacity="1.000000" stroke="none" 
	d="
M468.867310,255.323364 
	C469.063843,255.256287 469.391907,255.444946 469.833923,255.901489 
	C469.631561,255.972610 469.315186,255.775848 468.867310,255.323364 
z"/>
<path fill="#FDC606" opacity="1.000000" stroke="none" 
	d="
M618.328979,118.062721 
	C618.266113,117.864822 618.478271,117.518173 618.958679,117.005630 
	C619.019287,117.197807 618.811584,117.555893 618.328979,118.062721 
z"/>
<path fill="#FDC606" opacity="1.000000" stroke="none" 
	d="
M432.062195,120.707870 
	C431.884033,120.746712 431.573456,120.540504 431.152924,120.070953 
	C431.338593,120.026016 431.634155,120.244423 432.062195,120.707870 
z"/>
<path fill="#FDC606" opacity="1.000000" stroke="none" 
	d="
M470.929199,257.323242 
	C471.144043,257.276947 471.449432,257.507050 471.842407,258.017792 
	C471.626587,258.065491 471.323151,257.832550 470.929199,257.323242 
z"/>
<path fill="#FDC606" opacity="1.000000" stroke="none" 
	d="
M487.801544,269.320282 
	C487.984619,269.208954 488.318390,269.332397 488.810425,269.674255 
	C488.629883,269.780121 488.291046,269.667603 487.801544,269.320282 
z"/>
<path fill="#FDC606" opacity="1.000000" stroke="none" 
	d="
M485.769714,268.334595 
	C485.960175,268.219604 486.307617,268.345459 486.816956,268.700256 
	C486.628143,268.811310 486.277466,268.693390 485.769714,268.334595 
z"/>
<path fill="#FDC606" opacity="1.000000" stroke="none" 
	d="
M483.880524,267.301819 
	C484.062866,267.205383 484.377747,267.345825 484.834747,267.706055 
	C484.655609,267.796753 484.334320,267.667725 483.880524,267.301819 
z"/>
<path fill="#FDC606" opacity="1.000000" stroke="none" 
	d="
M504.100647,898.280029 
	C504.307281,898.245239 504.552521,898.470886 504.877167,898.938843 
	C504.684143,898.967651 504.411682,898.754028 504.100647,898.280029 
z"/>
<path fill="#FDC606" opacity="1.000000" stroke="none" 
	d="
M520.315063,900.062866 
	C520.249634,899.855164 520.445984,899.552429 520.902100,899.151611 
	C520.966797,899.358215 520.771790,899.663086 520.315063,900.062866 
z"/>
<path fill="#FDC606" opacity="1.000000" stroke="none" 
	d="
M519.287598,901.005249 
	C519.232910,900.801208 519.439697,900.517456 519.901123,900.143250 
	C519.953552,900.343689 519.751343,900.634644 519.287598,901.005249 
z"/>
<path fill="#FDC606" opacity="1.000000" stroke="none" 
	d="
M480.605530,265.325989 
	C480.824829,265.218384 481.226898,265.382111 481.804382,265.823120 
	C481.582611,265.932709 481.185455,265.764984 480.605530,265.325989 
z"/>
<path fill="#FDC606" opacity="1.000000" stroke="none" 
	d="
M409.263184,702.897339 
	C409.325653,702.780823 409.593292,702.789551 409.894775,702.979492 
	C409.928619,703.160706 409.468292,703.022583 409.263184,702.897339 
z"/>
<path fill="#FDC606" opacity="1.000000" stroke="none" 
	d="
M590.324585,146.076355 
	C590.255005,145.863586 590.449524,145.557632 590.905701,145.154114 
	C590.974426,145.365433 590.781494,145.674301 590.324585,146.076355 
z"/>
<path fill="#FDC606" opacity="1.000000" stroke="none" 
	d="
M592.322266,144.066895 
	C592.279968,143.853943 592.514343,143.548553 593.032898,143.159027 
	C593.077698,143.374741 592.838318,143.674606 592.322266,144.066895 
z"/>
<path fill="#FDC606" opacity="1.000000" stroke="none" 
	d="
M598.314575,138.115219 
	C598.249939,137.921951 598.436768,137.597809 598.886108,137.156586 
	C598.954346,137.354446 598.760193,137.669388 598.314575,138.115219 
z"/>
<path fill="#FDC606" opacity="1.000000" stroke="none" 
	d="
M599.315369,137.055176 
	C599.278442,136.846542 599.517944,136.543915 600.042847,136.159210 
	C600.082886,136.371811 599.837341,136.666504 599.315369,137.055176 
z"/>
<path fill="#FDC606" opacity="1.000000" stroke="none" 
	d="
M478.989716,264.277466 
	C479.171417,264.201965 479.458618,264.366425 479.868835,264.750000 
	C479.692963,264.818573 479.394073,264.667999 478.989716,264.277466 
z"/>
<path fill="#FDC606" opacity="1.000000" stroke="none" 
	d="
M622.330811,697.202271 
	C622.223083,697.010559 622.358337,696.667419 622.726440,696.168701 
	C622.830750,696.359009 622.702271,696.704956 622.330811,697.202271 
z"/>
<path fill="#FDC606" opacity="1.000000" stroke="none" 
	d="
M518.292725,133.027740 
	C518.228455,132.827667 518.419739,132.533829 518.857910,132.134933 
	C518.919312,132.331238 518.733826,132.632614 518.292725,133.027740 
z"/>
<path fill="#FDC606" opacity="1.000000" stroke="none" 
	d="
M506.778015,131.388794 
	C506.955017,131.353012 507.181732,131.540253 507.260620,131.848267 
	C507.112823,131.969025 506.827698,131.611847 506.778015,131.388794 
z"/>
<path fill="#FDC606" opacity="1.000000" stroke="none" 
	d="
M591.324097,145.075562 
	C591.254395,144.862976 591.448425,144.557068 591.903564,144.153091 
	C591.972473,144.364090 591.780151,144.673157 591.324097,145.075562 
z"/>
<path fill="#FDC606" opacity="1.000000" stroke="none" 
	d="
M409.947021,703.305481 
	C410.192413,703.100769 410.485016,703.244141 410.852966,703.702332 
	C410.666504,703.794800 410.355133,703.673584 409.947021,703.305481 
z"/>
<path fill="#FDC606" opacity="1.000000" stroke="none" 
	d="
M411.841492,704.307129 
	C412.017700,704.198364 412.335571,704.319397 412.806610,704.647827 
	C412.634216,704.749146 412.308655,704.643066 411.841492,704.307129 
z"/>
<path fill="#FDC606" opacity="1.000000" stroke="none" 
	d="
M506.079620,130.292450 
	C506.314545,130.250061 506.552460,130.480194 506.836060,130.963150 
	C506.615387,130.998978 506.349030,130.781982 506.079620,130.292450 
z"/>
<path fill="#FDC606" opacity="1.000000" stroke="none" 
	d="
M606.314880,130.113449 
	C606.250854,129.919891 606.439148,129.596512 606.890991,129.157959 
	C606.958740,129.356400 606.762939,129.670013 606.314880,130.113449 
z"/>
<path fill="#FDC606" opacity="1.000000" stroke="none" 
	d="
M607.315735,129.064697 
	C607.247986,128.856583 607.440796,128.552811 607.890686,128.147156 
	C607.957214,128.353210 607.766724,128.661118 607.315735,129.064697 
z"/>
<path fill="#FDC606" opacity="1.000000" stroke="none" 
	d="
M589.325317,147.146790 
	C589.255859,146.949280 589.440857,146.616333 589.893188,146.164154 
	C589.966980,146.367065 589.773438,146.689209 589.325317,147.146790 
z"/>
<path fill="#FDC606" opacity="1.000000" stroke="none" 
	d="
M608.307495,128.048676 
	C608.261658,127.844200 608.482544,127.543594 608.974487,127.151184 
	C609.021790,127.357094 608.797913,127.654816 608.307495,128.048676 
z"/>
</svg>